<?xml version="1.0" standalone="no"?>
<!DOCTYPE svg PUBLIC "-//W3C//DTD SVG 20010904//EN"
 "http://www.w3.org/TR/2001/REC-SVG-20010904/DTD/svg10.dtd">
<svg version="1.0" xmlns="http://www.w3.org/2000/svg"
 width="2489.000000pt" height="2381.000000pt" viewBox="0 0 2489.000000 2381.000000"
 preserveAspectRatio="xMidYMid meet">

<g transform="translate(0.000000,2381.000000) scale(0.100000,-0.100000)"
fill="#000000" stroke="none">
<path d="M21824 23056 c-58 -18 -104 -48 -104 -67 0 -9 -10 -44 -23 -78 -20
-54 -25 -60 -37 -46 -18 22 -6 113 17 132 16 13 12 14 -37 8 -64 -7 -136 -40
-143 -65 -3 -11 1 -17 11 -16 10 1 20 -14 28 -41 18 -59 44 -113 73 -150 14
-18 37 -46 51 -63 68 -86 233 -234 343 -309 27 -18 46 -35 44 -38 -6 -5 -111
49 -115 60 -2 4 -13 7 -25 7 -12 0 -35 7 -51 15 -35 19 -37 19 -30 0 4 -8 12
-15 19 -15 7 0 15 -3 17 -7 2 -5 51 -33 111 -63 59 -30 107 -58 107 -61 0 -4
11 -10 24 -13 14 -3 31 -12 38 -19 17 -15 46 -34 78 -50 23 -11 80 -62 80 -72
0 -10 -116 41 -124 54 -3 5 -18 12 -33 16 -15 3 -53 22 -85 40 -52 31 -58 32
-58 15 0 -10 -5 -22 -11 -26 -6 -4 -24 -35 -40 -70 -16 -35 -34 -64 -39 -64
-6 0 -10 -9 -10 -20 0 -11 -4 -20 -9 -20 -5 0 -16 -16 -25 -35 -9 -19 -21 -35
-26 -35 -6 0 -10 -4 -10 -9 0 -7 -29 -61 -65 -119 -6 -9 -21 -35 -33 -57 -13
-22 -33 -57 -45 -77 -12 -21 -35 -61 -51 -90 -16 -29 -32 -55 -36 -58 -6 -5
-21 -32 -54 -97 -6 -13 -14 -23 -18 -23 -4 0 -15 -15 -23 -32 -8 -18 -24 -46
-35 -63 -22 -33 -40 -72 -40 -85 0 -5 -4 -10 -8 -12 -4 -1 -41 -58 -81 -125
-40 -68 -77 -125 -82 -129 -5 -3 -9 -14 -9 -25 0 -12 -11 -33 -25 -47 -13 -15
-35 -47 -49 -72 -60 -113 -70 -130 -79 -130 -6 0 -15 -8 -22 -17 -12 -16 -16
-15 -59 7 -25 14 -46 28 -46 31 0 4 -11 10 -24 13 -14 3 -31 12 -38 19 -7 6
-30 25 -52 41 -54 41 -156 150 -181 194 -19 34 -20 39 -5 67 8 16 18 32 21 35
7 5 41 68 61 113 7 15 16 27 19 27 4 0 20 26 36 57 15 32 35 65 45 75 9 9 27
39 39 65 12 26 28 52 35 56 8 4 14 17 14 28 0 11 7 22 15 25 8 4 15 17 15 30
0 13 4 24 9 24 5 0 15 14 22 32 7 18 21 40 30 49 10 10 25 34 35 56 10 21 21
40 25 43 14 11 71 121 65 127 -3 3 3 12 14 20 11 8 20 20 20 26 0 7 11 24 25
39 14 15 36 51 50 80 30 64 45 89 65 104 8 7 12 15 9 19 -4 3 4 18 17 32 13
14 24 33 24 43 0 9 8 25 18 36 22 26 42 61 42 74 0 6 10 22 23 35 12 14 36 51
52 82 17 32 33 60 38 61 11 5 8 53 -7 87 l-12 30 -24 -50 c-14 -28 -34 -63
-46 -80 -12 -16 -32 -51 -44 -77 -13 -27 -27 -48 -32 -48 -4 0 -8 -5 -8 -12 0
-6 -10 -25 -23 -42 -13 -17 -31 -49 -42 -71 -10 -22 -29 -54 -42 -71 -12 -17
-23 -38 -23 -47 0 -10 -4 -17 -8 -17 -5 0 -19 -19 -32 -42 -13 -24 -33 -55
-45 -70 -13 -15 -32 -46 -44 -70 -12 -24 -31 -56 -42 -73 -10 -16 -26 -43 -35
-60 -34 -64 -50 -91 -74 -124 -14 -19 -32 -47 -40 -63 -40 -75 -141 -236 -155
-248 -8 -7 -15 -20 -15 -28 0 -14 -44 -88 -61 -102 -3 -3 -12 -20 -20 -37 -8
-18 -17 -33 -21 -33 -5 0 -8 -6 -8 -12 0 -7 -9 -24 -20 -38 -11 -14 -20 -33
-20 -42 0 -9 -9 -19 -19 -23 -16 -5 -18 -13 -14 -45 4 -29 0 -46 -16 -68 -11
-17 -21 -35 -21 -41 0 -7 -6 -14 -14 -17 -8 -3 -17 -16 -20 -29 -3 -13 -12
-30 -19 -37 -18 -21 -36 -50 -50 -80 -6 -16 -15 -28 -19 -28 -5 0 -13 -10 -18
-22 -5 -13 -20 -39 -32 -59 -84 -135 -118 -193 -118 -199 0 -5 -3 -10 -7 -12
-11 -4 -53 -65 -53 -76 0 -5 -9 -19 -20 -32 -11 -13 -20 -29 -20 -37 0 -7 -4
-13 -8 -13 -5 0 -16 -15 -25 -32 -10 -18 -25 -45 -35 -60 -9 -15 -51 -82 -92
-150 -41 -68 -77 -125 -80 -128 -3 -3 -19 -27 -35 -55 -15 -27 -31 -52 -35
-55 -4 -3 -19 -29 -35 -57 -15 -29 -31 -53 -36 -53 -4 0 -9 -11 -13 -23 -3
-13 -19 -40 -34 -60 -16 -20 -35 -50 -42 -67 -7 -16 -16 -30 -20 -30 -4 0 -10
-8 -14 -17 -6 -21 -29 -60 -71 -123 -45 -68 -54 -83 -67 -110 -7 -14 -16 -28
-21 -31 -5 -4 -14 -16 -20 -27 -7 -12 -32 -54 -57 -94 -25 -40 -49 -80 -53
-88 -4 -8 -26 -42 -47 -75 -22 -33 -45 -72 -51 -87 -6 -16 -15 -28 -19 -28 -5
0 -12 -10 -16 -22 -3 -12 -10 -26 -15 -32 -18 -21 -57 -83 -176 -281 -7 -11
-20 -35 -29 -52 -10 -18 -21 -33 -25 -33 -4 0 -9 -8 -13 -17 -3 -10 -24 -47
-46 -82 -22 -34 -40 -65 -40 -68 0 -2 -11 -19 -25 -37 -14 -18 -25 -38 -25
-44 0 -7 -4 -12 -10 -12 -5 0 -10 -7 -10 -15 0 -8 -4 -15 -9 -15 -5 0 -12 -8
-15 -17 -11 -29 -41 -80 -70 -117 -14 -19 -26 -39 -26 -44 0 -4 -13 -26 -30
-48 -16 -21 -30 -43 -30 -48 0 -5 -10 -23 -23 -40 -13 -17 -44 -67 -71 -111
-26 -44 -81 -134 -122 -200 -41 -66 -89 -144 -107 -173 -17 -30 -40 -66 -50
-80 -9 -15 -23 -39 -29 -54 -7 -16 -16 -28 -20 -28 -4 0 -14 -15 -23 -32 -17
-37 -34 -66 -52 -86 -7 -7 -16 -24 -19 -38 -3 -13 -10 -24 -15 -24 -5 0 -14
-10 -19 -22 -5 -13 -21 -41 -35 -63 -14 -22 -30 -51 -37 -65 -7 -14 -15 -27
-18 -30 -5 -4 -25 -35 -65 -101 -24 -40 -98 -158 -125 -199 -16 -25 -34 -56
-40 -70 -6 -13 -14 -27 -18 -30 -11 -8 -52 -68 -52 -76 0 -4 -19 -37 -43 -73
-23 -36 -49 -79 -57 -96 -8 -16 -17 -32 -20 -35 -16 -15 -61 -82 -70 -102 -6
-13 -28 -50 -50 -83 -22 -33 -43 -67 -47 -75 -3 -8 -15 -26 -25 -39 -14 -18
-18 -20 -18 -7 0 9 4 16 9 16 5 0 15 16 22 35 7 19 16 35 20 35 4 0 13 16 20
35 7 19 16 35 19 35 3 0 19 26 35 58 17 31 33 59 36 62 4 3 22 31 40 63 19 32
39 66 44 75 6 9 21 35 33 57 13 22 34 58 47 80 14 22 27 48 31 58 3 9 10 17
14 17 4 0 13 15 21 33 7 17 16 34 19 37 4 3 27 38 51 79 24 41 53 89 64 107
36 60 95 159 104 174 5 8 23 39 40 68 17 30 29 58 25 63 -3 5 -25 9 -50 9 -25
0 -64 4 -87 9 -23 5 -87 17 -142 26 -148 24 -258 45 -264 50 -13 14 212 -10
241 -25 9 -5 51 -12 95 -16 43 -4 83 -10 88 -14 6 -5 40 -11 77 -15 l66 -7 26
41 c14 22 26 44 26 47 0 4 10 21 23 38 12 17 28 42 35 56 7 14 21 39 32 55 11
17 26 41 33 55 6 14 24 43 38 65 15 22 48 77 75 123 27 46 59 100 71 120 13
20 25 45 29 55 3 9 10 17 14 17 4 0 14 15 21 33 7 17 18 37 24 44 30 35 35 43
35 51 0 6 17 36 38 68 41 65 44 70 99 163 21 35 48 80 60 100 12 20 27 45 32
56 6 11 38 63 71 115 33 52 67 109 76 125 8 17 32 57 54 90 22 33 44 69 50 80
5 11 20 37 32 57 13 20 55 89 93 154 39 64 80 132 92 152 13 21 25 45 29 55 3
9 9 17 13 17 3 0 13 15 20 33 8 17 20 37 25 44 28 32 36 43 36 49 0 6 70 129
121 213 9 14 26 43 38 64 26 46 54 90 61 97 6 6 28 45 48 83 7 15 17 27 22 27
4 0 11 12 14 26 6 23 41 81 57 94 4 3 10 16 14 30 4 14 14 33 23 43 14 16 13
17 -13 17 -15 0 -53 6 -84 14 -31 8 -85 17 -121 21 -36 3 -94 12 -130 20 -87
18 -228 43 -318 55 -41 6 -93 14 -115 19 -23 5 -76 15 -117 21 -41 6 -91 16
-111 21 -20 5 -48 9 -63 9 -15 0 -55 6 -89 14 -63 14 -130 26 -267 46 -41 6
-100 18 -130 25 -30 7 -86 16 -125 20 -38 3 -86 11 -106 16 -50 13 -188 38
-299 54 -52 7 -122 19 -155 25 -60 12 -103 19 -225 40 -36 6 -94 18 -130 25
-36 8 -96 19 -135 25 -38 7 -86 15 -105 20 -50 12 -159 30 -272 45 -53 7 -118
17 -145 23 -90 20 -208 41 -268 47 -33 4 -89 13 -125 20 -36 7 -99 18 -140 24
-125 19 -201 32 -275 46 -38 8 -106 19 -150 25 -44 7 -100 16 -125 20 -103 20
-181 33 -275 45 -55 7 -122 18 -150 24 -106 22 -212 41 -270 47 -33 3 -89 12
-125 19 -36 7 -99 18 -140 24 -123 19 -201 32 -275 46 -38 8 -101 18 -140 24
-38 6 -86 13 -105 16 -19 3 -64 10 -99 15 -36 5 -78 14 -95 19 -17 5 -62 12
-101 16 -38 4 -99 13 -135 20 -99 21 -174 34 -295 50 -60 8 -117 18 -125 21
-8 3 -71 14 -140 25 -69 10 -165 26 -215 35 -147 25 -197 34 -265 44 -36 5
-103 17 -150 25 -47 8 -132 21 -190 29 -58 8 -125 19 -150 25 -84 18 -165 32
-265 46 -55 7 -118 17 -140 23 -22 5 -80 15 -130 22 -49 7 -106 16 -125 21
-19 5 -48 9 -64 9 -17 0 -57 6 -90 14 -34 8 -99 19 -146 26 -47 6 -105 15
-130 20 -90 18 -167 31 -275 45 -60 8 -117 18 -125 21 -18 7 -154 29 -295 49
-55 8 -118 19 -140 24 -22 5 -80 15 -130 21 -49 6 -106 15 -125 20 -19 5 -66
14 -105 19 -249 39 -326 51 -375 60 -30 5 -71 9 -90 9 l-35 -1 40 -8 c26 -5
13 -6 -40 -2 -44 2 -109 11 -145 18 -36 7 -96 16 -135 20 -38 3 -99 12 -135
20 -113 23 -243 44 -315 51 -38 3 -95 12 -125 19 -30 8 -95 19 -145 25 -49 6
-106 15 -126 21 -20 5 -51 9 -69 9 -17 0 -59 7 -93 15 -34 8 -96 19 -137 25
-41 6 -94 15 -118 20 -23 6 -59 10 -80 10 -20 0 -57 6 -82 14 -25 7 -79 16
-120 20 -41 3 -104 13 -140 21 -36 7 -108 21 -160 29 -52 9 -140 23 -195 32
-128 21 -184 30 -265 43 -123 19 -245 40 -305 51 -33 6 -89 16 -125 21 -146
21 -356 56 -455 75 -95 18 -191 33 -305 49 -52 7 -115 18 -140 25 -27 8 -106
13 -200 13 -132 0 -172 -4 -272 -27 -164 -37 -307 -98 -449 -192 -37 -24 -72
-51 -79 -59 -7 -8 -16 -15 -20 -15 -4 0 -42 -33 -83 -72 -110 -106 -248 -280
-269 -339 -5 -16 -14 -29 -19 -29 -5 0 -9 -4 -9 -9 0 -6 -18 -48 -40 -95 -54
-112 -84 -210 -126 -416 -9 -41 -22 -102 -29 -135 -8 -33 -17 -85 -20 -115 -4
-30 -13 -77 -20 -105 -7 -27 -19 -84 -25 -125 -7 -41 -22 -115 -33 -165 -10
-49 -23 -110 -27 -135 -4 -25 -13 -71 -19 -102 -6 -32 -15 -83 -21 -115 -5
-31 -14 -70 -19 -87 -5 -17 -12 -53 -15 -81 -6 -46 -23 -133 -47 -230 -5 -22
-16 -83 -24 -135 -8 -52 -18 -108 -23 -125 -6 -16 -15 -64 -22 -105 -7 -41
-16 -88 -21 -104 -5 -16 -9 -42 -9 -58 0 -16 -5 -38 -10 -48 -6 -10 -15 -47
-20 -82 -6 -35 -15 -83 -19 -108 -5 -25 -14 -74 -21 -109 -6 -36 -13 -68 -16
-73 -3 -5 -10 -39 -15 -76 -5 -37 -15 -94 -23 -127 -29 -124 -45 -201 -51
-245 -3 -25 -12 -72 -20 -105 -7 -33 -19 -87 -25 -120 -6 -33 -16 -79 -21
-102 -5 -23 -9 -53 -9 -67 0 -14 -4 -26 -9 -26 -5 0 -12 -28 -16 -62 -4 -34
-11 -69 -15 -78 -11 -22 -40 -145 -40 -169 0 -12 -4 -21 -8 -21 -5 0 -15 -45
-22 -100 -7 -55 -16 -102 -20 -105 -4 -3 -11 -34 -15 -70 -3 -36 -11 -67 -16
-70 -5 -4 -9 -21 -9 -38 -1 -18 -7 -66 -16 -107 -8 -41 -23 -120 -34 -175 -10
-55 -26 -134 -35 -175 -15 -71 -23 -113 -45 -232 -23 -127 -30 -162 -39 -192
-5 -17 -12 -56 -16 -86 -5 -51 -15 -101 -51 -255 -7 -33 -18 -93 -24 -134 -6
-41 -13 -78 -16 -83 -3 -5 -10 -34 -14 -66 -10 -62 -22 -129 -44 -237 -8 -38
-21 -108 -30 -155 -19 -102 -33 -173 -52 -260 -8 -36 -21 -105 -30 -155 -9
-49 -19 -108 -23 -130 -5 -22 -16 -80 -25 -130 -10 -49 -24 -124 -33 -165 -21
-107 -30 -156 -44 -235 -6 -38 -17 -92 -24 -120 -7 -27 -18 -81 -25 -120 -13
-81 -25 -143 -45 -235 -8 -36 -17 -87 -20 -115 -4 -27 -13 -75 -20 -105 -22
-92 -44 -202 -50 -255 -4 -27 -13 -75 -20 -105 -8 -30 -23 -109 -35 -175 -11
-66 -27 -147 -35 -180 -8 -33 -22 -103 -31 -155 -30 -176 -33 -192 -43 -224
-5 -17 -13 -58 -16 -91 -4 -33 -12 -82 -20 -110 -17 -64 -31 -136 -50 -255 -9
-52 -20 -111 -25 -130 -5 -19 -14 -64 -20 -100 -12 -70 -21 -115 -44 -225 -8
-38 -20 -99 -26 -135 -15 -85 -29 -151 -46 -225 -7 -33 -16 -82 -19 -110 -6
-47 -18 -109 -51 -250 -7 -33 -16 -82 -20 -110 -3 -27 -12 -77 -19 -110 -7
-33 -19 -89 -25 -125 -13 -72 -22 -120 -44 -225 -8 -38 -20 -99 -26 -135 -15
-82 -28 -149 -45 -225 -8 -33 -16 -82 -20 -110 -5 -47 -17 -105 -51 -250 -7
-33 -16 -85 -20 -115 -3 -30 -12 -80 -19 -110 -8 -30 -19 -84 -25 -120 -15
-85 -28 -150 -45 -230 -7 -36 -19 -96 -25 -135 -6 -38 -15 -86 -20 -105 -18
-75 -40 -187 -46 -235 -3 -27 -11 -68 -16 -90 -15 -55 -36 -164 -52 -265 -7
-47 -18 -103 -24 -125 -6 -22 -16 -74 -22 -115 -7 -41 -16 -85 -21 -98 -5 -13
-9 -35 -9 -51 0 -15 -6 -50 -14 -77 -7 -27 -19 -80 -25 -119 -23 -129 -32
-180 -46 -240 -8 -33 -17 -80 -20 -105 -7 -49 -29 -160 -51 -255 -7 -33 -16
-82 -20 -110 -3 -27 -10 -67 -16 -89 -5 -21 -14 -63 -19 -92 -12 -73 -26 -144
-44 -234 -28 -136 -49 -249 -64 -343 -6 -38 -15 -76 -20 -85 -5 -9 -12 -46
-16 -82 -3 -36 -13 -90 -20 -120 -13 -55 -31 -140 -61 -300 -9 -47 -21 -123
-26 -170 -13 -116 -4 -387 17 -480 24 -107 56 -212 72 -235 7 -11 13 -25 13
-33 0 -31 100 -210 168 -300 80 -106 127 -154 248 -252 72 -58 270 -170 301
-170 8 0 27 -6 41 -14 33 -16 78 -32 162 -55 36 -10 97 -29 135 -41 78 -24
169 -45 260 -60 126 -20 202 -32 255 -40 30 -4 73 -12 95 -18 22 -6 72 -14
110 -17 39 -4 88 -11 109 -17 48 -12 173 -33 319 -53 60 -8 112 -17 116 -20 5
-2 42 -10 82 -16 158 -23 197 -29 284 -45 138 -24 194 -33 265 -44 36 -6 94
-15 130 -20 36 -6 79 -14 95 -19 17 -5 64 -13 105 -17 41 -3 99 -13 128 -20
29 -8 67 -14 84 -14 16 0 56 -6 87 -14 31 -8 85 -17 121 -21 36 -3 94 -12 130
-20 36 -7 99 -18 140 -24 91 -14 159 -25 270 -45 47 -8 117 -20 155 -26 148
-23 202 -32 270 -45 39 -8 97 -17 130 -20 33 -3 89 -12 125 -20 102 -22 229
-43 295 -50 33 -4 89 -13 125 -20 36 -7 99 -18 140 -24 123 -19 201 -32 275
-46 39 -8 104 -19 145 -25 109 -16 196 -30 275 -45 39 -8 95 -17 125 -20 58
-7 181 -28 290 -50 36 -8 92 -16 125 -20 33 -3 92 -12 130 -20 39 -7 104 -19
145 -25 41 -6 94 -15 118 -20 23 -6 54 -10 68 -10 14 0 53 -6 87 -14 34 -8 96
-20 137 -26 143 -21 205 -31 275 -45 39 -8 97 -17 130 -20 33 -3 92 -12 130
-20 118 -23 186 -35 298 -50 60 -8 125 -19 145 -24 20 -6 73 -15 117 -21 44
-6 103 -15 130 -20 95 -17 220 -38 285 -49 36 -5 97 -15 135 -21 39 -6 102
-17 140 -25 39 -8 97 -17 130 -20 33 -4 92 -13 130 -20 131 -26 240 -45 325
-56 46 -6 87 -12 91 -15 4 -2 40 -9 80 -15 97 -14 164 -25 274 -44 143 -25
206 -35 270 -44 114 -17 200 -32 235 -40 19 -5 62 -12 95 -16 61 -6 177 -26
295 -50 36 -8 97 -16 135 -20 39 -3 95 -12 125 -20 30 -7 93 -19 140 -25 47
-6 105 -15 130 -20 133 -25 244 -44 490 -81 36 -5 81 -14 100 -18 19 -5 62
-12 95 -16 61 -6 177 -26 295 -50 36 -8 92 -16 125 -20 33 -3 92 -12 130 -20
39 -7 104 -19 145 -25 109 -16 185 -29 270 -45 41 -8 109 -19 150 -25 71 -11
95 -15 235 -40 33 -5 106 -17 162 -24 56 -8 124 -19 150 -25 83 -18 215 -41
288 -50 39 -5 126 -18 195 -30 69 -12 157 -26 195 -32 39 -6 102 -17 140 -24
66 -13 111 -20 273 -46 37 -5 99 -16 137 -24 39 -8 97 -17 130 -20 33 -4 92
-12 130 -20 113 -23 183 -34 298 -50 60 -8 125 -19 145 -24 20 -5 71 -15 112
-21 89 -13 156 -24 270 -44 47 -8 117 -20 155 -26 169 -27 204 -32 265 -45 36
-7 92 -16 125 -20 66 -7 194 -28 295 -50 36 -8 94 -17 130 -20 36 -4 94 -13
130 -20 36 -7 99 -18 140 -24 93 -14 161 -25 270 -45 47 -8 117 -20 155 -26
117 -18 187 -30 245 -40 134 -25 204 -32 330 -35 96 -2 162 -9 230 -25 144
-34 247 -49 335 -49 90 -1 255 17 270 29 6 4 25 11 43 15 18 4 45 13 60 21 15
8 33 14 41 14 13 0 100 39 111 50 3 3 21 13 40 23 84 43 137 80 200 141 22 21
27 32 19 42 -5 7 -9 25 -7 41 3 27 1 28 -42 28 -25 1 -53 4 -62 9 -26 12 -22
35 7 42 14 3 25 10 25 14 0 14 -44 19 -59 7 -12 -10 -12 -9 0 11 11 18 20 21
49 16 34 -5 34 -4 12 9 -22 13 -23 15 -8 30 9 8 16 19 16 23 0 10 61 64 72 64
5 0 8 6 7 13 -4 36 2 49 20 44 13 -3 18 0 15 8 -7 18 9 26 26 14 11 -6 12 -11
4 -16 -6 -5 -14 -18 -18 -30 -6 -19 -4 -22 21 -19 18 1 33 -5 41 -16 19 -26
37 -22 20 4 -9 13 -25 25 -36 28 -16 4 -19 9 -12 20 8 13 11 12 24 -5 8 -11
18 -17 22 -13 4 4 1 14 -6 23 -10 12 -10 15 1 16 8 1 20 2 27 3 7 0 17 7 22
15 13 22 50 21 50 0 0 -26 11 -49 22 -49 6 0 8 12 5 30 -5 24 -3 30 11 31 50
5 68 3 74 -6 11 -15 20 2 13 24 -5 16 -13 20 -36 17 -16 -2 -32 0 -35 5 -3 5
0 9 7 9 7 0 22 8 33 17 12 10 18 14 14 9 -10 -12 11 -38 25 -29 6 4 7 1 2 -7
-5 -9 -4 -11 3 -6 7 4 12 14 12 22 0 8 4 14 9 14 13 0 20 36 10 51 -8 12 -11
11 -19 -1 -8 -12 -10 -11 -10 8 0 12 5 22 10 22 18 0 10 19 -11 25 -27 9 -20
16 9 8 13 -3 22 -13 22 -24 0 -41 32 -8 39 40 0 5 8 17 16 25 13 12 14 20 4
37 -10 19 -9 21 6 15 13 -4 16 -2 12 9 -4 8 -2 17 4 20 5 4 3 13 -6 21 -18 18
-35 10 -35 -17 0 -10 -4 -19 -10 -19 -5 0 -10 14 -10 30 0 17 -4 30 -10 30 -5
0 -10 6 -10 13 0 7 -9 20 -20 30 -19 16 -20 16 -20 -7 0 -23 -16 -36 -46 -36
-12 0 -12 4 -2 20 9 13 15 16 20 7 12 -19 21 19 9 40 -6 10 -11 12 -11 6 0 -7
-6 -13 -14 -13 -20 0 -58 106 -46 128 5 9 16 62 25 117 22 154 39 243 48 251
4 4 7 20 7 36 0 16 3 27 8 25 4 -3 8 24 8 60 1 35 7 70 13 76 6 6 11 28 11 50
0 21 4 36 9 33 4 -3 6 6 3 20 -2 14 0 35 6 47 6 12 13 43 16 69 14 114 19 144
27 153 4 6 11 38 15 73 3 34 11 65 15 68 5 3 9 20 9 37 0 38 24 167 39 217 6
19 14 64 17 100 4 36 10 70 14 75 5 6 11 39 15 75 4 36 11 74 16 85 5 11 16
63 25 115 8 52 19 120 24 150 5 30 13 63 19 75 11 24 31 150 31 199 0 19 5 38
10 41 6 3 10 17 10 31 0 27 9 31 29 12 10 -11 11 -10 6 4 -4 10 -11 18 -16 18
-5 0 -9 14 -9 30 0 17 5 30 10 30 6 0 10 14 10 31 0 42 22 163 31 169 7 5 13
46 24 155 4 33 13 73 21 89 8 16 14 49 14 73 0 23 4 43 9 43 5 0 14 52 21 115
7 63 16 115 20 115 4 0 11 33 15 72 3 40 10 75 15 78 4 3 15 52 24 110 33 208
40 245 46 250 4 3 13 48 19 100 7 52 17 100 22 106 6 7 14 54 20 105 5 52 14
101 19 110 4 9 12 37 15 63 4 26 13 50 19 52 6 2 11 31 12 67 1 34 11 106 23
159 11 54 21 113 21 133 0 19 4 35 9 35 9 0 18 49 28 152 3 32 9 58 13 58 4 0
11 17 15 37 4 21 12 41 18 45 8 5 7 11 -1 21 -9 10 -10 22 -3 38 5 13 15 60
21 103 6 44 13 82 15 84 3 3 23 5 45 5 31 0 40 4 40 17 0 10 -8 24 -17 31 -15
12 -16 12 -10 -3 3 -10 3 -18 -1 -19 -4 0 -14 -2 -23 -4 -14 -2 -17 5 -15 36
0 21 4 39 7 39 4 0 7 30 8 68 0 45 5 70 15 77 8 6 15 31 17 55 2 25 9 48 14
52 6 5 5 8 -3 8 -10 0 -10 5 2 22 9 12 17 43 17 68 1 25 4 58 8 73 l6 28 23
-21 c13 -12 26 -19 30 -15 4 4 0 12 -10 19 -9 6 -19 33 -23 59 -6 39 -5 47 9
47 9 0 16 5 16 10 0 6 -6 10 -12 10 -10 0 -9 3 1 9 10 7 10 10 1 13 -8 2 -10
12 -5 26 8 28 29 24 33 -6 2 -13 10 -20 23 -19 25 2 24 9 -6 41 -22 23 -22 26
-5 26 10 0 20 -6 23 -12 7 -21 14 -6 21 42 5 38 4 42 -6 23 -18 -36 -45 -29
-53 13 -3 20 -4 39 -1 42 3 3 6 -3 7 -14 0 -10 3 -14 5 -7 3 7 0 21 -6 32 -8
17 -8 21 3 21 15 0 31 55 21 71 -3 5 2 9 10 9 9 0 16 6 16 14 0 8 7 16 15 20
9 3 15 0 15 -9 0 -8 4 -15 9 -15 13 0 23 32 13 39 -5 3 -12 15 -16 25 -6 18
-9 16 -28 -15 -12 -19 -23 -29 -25 -22 -3 7 5 22 16 35 16 16 18 24 9 29 -7 5
6 6 30 4 46 -4 51 0 25 22 -17 13 -16 13 6 7 15 -4 21 -2 17 4 -3 6 1 17 9 25
18 19 20 61 3 54 -7 -2 -21 0 -31 5 -13 7 -15 13 -7 28 13 24 13 40 0 20 -7
-12 -10 -12 -10 -1 0 7 -6 11 -13 8 -8 -3 -13 3 -13 14 0 11 6 19 13 19 7 0
13 -4 13 -10 0 -5 9 -10 20 -10 11 0 20 5 20 10 0 6 -7 10 -15 10 -8 0 -15 9
-15 20 0 11 7 20 15 20 8 0 15 8 16 18 0 10 3 12 6 5 7 -19 33 -16 33 4 0 15
1 15 18 0 22 -20 44 -22 41 -4 -1 6 -1 23 0 36 l1 25 22 -24 c13 -13 21 -32
20 -42 -4 -23 14 -23 27 -1 6 10 11 12 11 6 0 -18 30 -16 30 2 0 8 -7 15 -15
15 -8 0 -15 4 -15 9 0 5 -12 14 -27 20 l-28 11 28 -5 c15 -3 27 -1 27 5 0 5
-4 10 -10 10 -5 0 -10 9 -10 20 0 11 -4 20 -10 20 -5 0 -10 5 -10 11 0 6 9 8
20 4 11 -4 20 -2 20 4 0 19 16 12 30 -14 7 -13 17 -22 22 -19 13 8 9 24 -7 24
-8 0 -15 5 -15 10 0 6 6 10 14 10 15 0 32 37 23 47 -3 2 1 24 10 46 20 54 23
107 6 107 -13 0 -17 -22 -14 -76 2 -21 -3 -33 -13 -37 -11 -4 -16 -19 -16 -44
-1 -34 -2 -36 -14 -20 -16 21 -26 22 -26 1 0 -11 -5 -14 -17 -10 -9 4 -20 1
-25 -6 -5 -8 -6 -2 -2 14 4 18 2 28 -5 28 -6 0 -11 -8 -11 -17 0 -15 -2 -15
-9 -4 -8 12 -12 12 -26 -2 -9 -10 -24 -17 -33 -16 -13 0 -14 2 -2 6 8 3 23 14
33 24 23 21 55 30 63 18 9 -16 26 -10 20 7 -4 9 -2 22 3 28 6 7 9 33 8 59 -2
38 0 44 10 31 22 -30 47 -12 57 39 4 26 12 48 17 48 5 1 15 2 22 3 14 1 23 46
9 46 -6 0 -13 7 -16 16 -3 8 -2 12 4 9 6 -3 10 1 10 9 0 8 -10 18 -21 21 -12
4 -17 10 -12 14 6 3 13 13 16 21 4 10 6 8 6 -7 l1 -23 24 21 c23 20 24 26 19
95 -3 51 -2 74 6 74 6 0 11 -4 11 -10 0 -5 5 -10 10 -10 6 0 10 14 10 30 0 30
-13 40 -26 19 -4 -8 -9 -7 -15 2 -8 12 -10 12 -18 1 -6 -11 -10 -10 -15 3 -9
24 -8 28 9 21 8 -3 26 -1 39 4 17 6 26 5 30 -3 4 -7 4 -1 2 12 -3 13 1 36 8
50 7 14 19 64 26 111 8 47 17 90 22 96 5 7 10 44 11 83 1 49 6 71 15 71 7 0
12 12 12 28 -1 31 14 118 35 212 9 36 20 83 25 105 5 22 14 78 21 125 7 47 16
90 20 95 3 6 12 51 18 100 7 50 15 97 19 105 3 8 11 44 18 80 26 136 55 278
70 350 8 41 17 89 19 105 4 31 26 143 51 255 8 36 21 108 29 160 8 52 19 104
24 115 5 11 12 40 15 65 5 50 18 121 41 225 9 39 24 115 35 170 10 55 26 134
35 175 9 41 22 118 30 170 8 52 19 104 24 115 6 11 13 45 17 75 3 30 10 60 14
65 4 6 11 39 15 75 4 36 11 83 16 105 11 46 46 223 60 305 5 30 13 66 18 80 5
14 14 57 21 95 6 39 21 115 32 170 11 55 26 134 33 175 13 77 26 139 50 245 8
33 17 83 21 110 3 28 12 75 19 105 8 30 19 84 25 120 24 136 32 177 45 235 8
33 19 87 25 120 24 122 32 161 45 220 8 33 17 83 20 110 3 28 12 77 19 110 33
140 46 203 51 245 3 25 12 72 20 105 17 75 30 141 45 225 6 36 18 92 25 125
17 78 31 145 45 225 6 36 18 94 25 130 8 36 17 85 20 110 3 25 12 72 20 105
37 163 45 204 51 250 3 28 12 75 19 105 8 30 19 84 25 120 25 137 32 177 45
235 8 33 19 89 25 125 27 151 32 177 42 215 5 21 16 80 24 130 7 49 18 108 23
130 52 210 68 398 52 603 -6 80 -15 150 -20 156 -4 6 -11 22 -14 37 -5 21 -16
27 -59 38 -76 19 -117 32 -164 53 -37 17 -43 25 -59 76 -9 31 -27 83 -41 115
-13 32 -24 64 -24 72 0 7 -3 15 -7 17 -5 2 -21 30 -37 63 -16 33 -32 62 -35
65 -8 6 -28 38 -43 69 -7 13 -23 36 -35 50 -12 14 -40 49 -64 76 -62 73 -162
163 -238 215 -97 65 -103 69 -131 80 -14 6 -36 16 -50 24 -50 28 -237 83 -320
95 -109 15 -189 29 -270 46 -36 8 -94 17 -130 20 -36 3 -94 12 -130 20 -89 20
-166 33 -293 50 -60 8 -125 19 -145 24 -20 6 -73 15 -117 21 -44 6 -102 15
-130 20 -27 5 -93 16 -145 25 -52 10 -114 21 -137 26 -23 5 -52 9 -65 9 -68 0
-127 40 -84 56 8 3 17 13 20 22 3 9 15 34 28 54 60 96 128 217 128 227 0 6 5
11 10 11 6 0 10 5 10 10 0 6 9 23 19 38 11 15 22 38 26 52 5 22 4 22 -11 -5
-9 -16 -20 -32 -23 -35 -10 -8 -51 -69 -51 -75 0 -4 -14 -28 -32 -53 -61 -91
-68 -101 -68 -107 0 -3 -5 -11 -10 -18 -24 -29 -70 -103 -70 -114 0 -7 -4 -13
-9 -13 -5 0 -11 -8 -15 -17 -3 -10 -21 -38 -40 -63 -19 -25 -35 -48 -35 -53
-1 -11 -75 -121 -83 -125 -5 -2 -8 -7 -8 -12 0 -11 -63 -114 -72 -118 -5 -2
-8 -10 -8 -18 0 -8 -6 -17 -13 -20 -8 -3 -20 -20 -27 -39 -13 -32 -40 -56 -40
-35 0 6 4 10 9 10 5 0 14 15 22 33 7 17 15 34 19 37 3 3 11 16 18 30 7 14 23
43 37 65 13 22 32 57 42 78 10 20 21 37 25 37 5 0 8 4 8 9 0 5 20 42 45 83 25
40 49 83 54 95 6 12 23 41 38 65 15 24 33 54 40 68 7 14 24 43 38 65 14 22 28
47 32 55 3 8 12 22 18 30 7 8 25 39 40 68 15 28 31 52 35 52 4 0 11 11 14 25
3 13 19 44 35 67 15 24 41 66 57 94 80 143 89 154 124 166 l35 13 -40 6 c-34
5 -29 6 28 8 67 1 69 2 80 31 6 17 15 30 18 30 4 0 14 12 21 28 19 37 42 76
48 82 9 9 60 90 60 95 0 3 5 11 10 18 21 25 60 88 60 97 0 6 4 10 8 10 5 0 15
12 23 28 7 15 24 41 36 58 13 17 23 34 23 38 0 4 19 35 43 69 52 77 64 95 79
127 7 14 16 28 21 31 9 6 26 33 49 79 7 14 16 30 21 35 26 34 107 155 107 161
0 4 11 22 25 40 14 18 25 37 25 43 0 6 8 19 18 29 20 22 38 48 54 82 7 14 27
46 45 71 18 26 33 49 33 53 0 3 16 28 35 55 19 26 35 53 35 60 0 6 4 11 9 11
5 0 14 14 21 31 13 30 62 60 123 73 60 14 97 88 97 195 0 28 -4 51 -10 51 -5
0 -10 -6 -10 -12 -1 -23 -25 -46 -55 -54 l-29 -7 16 25 c16 25 16 26 -2 21
-25 -7 -25 -3 2 44 18 30 23 53 23 113 0 70 -17 152 -37 175 -4 5 -8 15 -8 21
0 33 -133 188 -204 239 -16 11 -34 26 -41 33 -8 6 -18 12 -24 12 -6 0 -11 4
-11 8 0 5 -15 16 -32 26 -18 9 -51 28 -73 41 -72 43 -164 85 -230 107 -117 38
-272 48 -351 24z m-14 -86 c0 -15 -7 -20 -27 -20 -25 0 -26 0 -8 20 10 11 22
20 27 20 4 0 8 -9 8 -20z m-186 -96 c3 -9 6 -28 6 -42 1 -15 10 -43 20 -62 10
-19 25 -46 32 -60 18 -36 124 -151 186 -203 19 -15 29 -27 23 -27 -5 0 -21 10
-35 23 -13 12 -36 31 -51 41 -31 24 -131 126 -163 168 -18 23 -52 118 -52 144
0 34 23 47 34 18z m331 -355 c41 -30 64 -59 46 -59 -11 0 -83 53 -100 73 -23
28 6 20 54 -14z m260 -80 c45 -27 38 -35 -18 -20 -48 14 -90 59 -43 47 14 -3
41 -16 61 -27z m-1366 -1676 c42 -24 101 -79 101 -94 0 -3 -11 -23 -25 -43
-14 -20 -25 -39 -25 -43 0 -3 -20 -34 -45 -69 -25 -34 -45 -66 -45 -71 0 -5
-13 -24 -30 -43 -16 -19 -29 -39 -30 -44 0 -4 -13 -25 -30 -46 -16 -21 -30
-40 -30 -43 0 -5 -105 -167 -157 -242 -16 -22 -34 -51 -41 -65 -7 -14 -22 -34
-33 -46 -10 -11 -19 -25 -19 -31 0 -7 -6 -18 -12 -25 -18 -19 -138 -196 -138
-203 0 -3 -16 -28 -35 -55 -19 -27 -35 -54 -35 -60 0 -5 -4 -10 -8 -10 -10 0
-62 -77 -62 -91 0 -5 -4 -9 -9 -9 -5 0 -14 -13 -21 -30 -7 -16 -16 -30 -21
-30 -4 0 -10 -8 -13 -17 -3 -10 -19 -33 -35 -52 -16 -19 -35 -46 -43 -60 -18
-36 -62 -75 -66 -61 -3 7 0 22 6 33 31 67 52 115 57 139 4 15 13 32 21 39 8 6
14 18 14 25 0 8 4 22 9 32 5 9 15 31 22 47 7 17 18 37 24 45 6 8 22 40 35 70
13 30 29 62 36 70 6 8 15 26 19 39 4 13 20 45 35 71 15 26 31 58 35 71 4 13
18 40 31 59 13 19 24 43 24 52 0 10 4 18 9 18 5 0 11 8 15 18 3 9 24 49 46 87
22 39 45 81 51 95 6 14 15 32 20 40 5 8 12 23 15 33 4 9 10 17 14 17 4 0 13
15 21 33 7 17 16 34 19 37 4 3 22 32 40 65 18 33 41 71 51 84 11 13 19 30 19
37 0 8 3 14 8 14 4 0 19 21 32 47 30 57 62 107 73 111 4 2 7 9 7 16 0 14 37
66 47 66 4 0 27 -12 52 -27z m-16469 -1373 c20 -6 21 -8 5 -8 -11 0 -31 4 -45
8 -20 6 -21 8 -5 8 11 0 31 -4 45 -8z m148 -149 c17 -20 32 -41 32 -48 0 -6 3
-13 8 -15 16 -7 43 -77 50 -133 5 -38 12 -59 20 -57 19 3 16 -112 -3 -128 -13
-10 -15 -9 -16 11 -1 21 -2 20 -8 -6 -18 -72 -79 -182 -132 -236 -87 -89 -218
-134 -318 -108 -66 17 -78 41 -18 39 62 -3 76 0 52 10 l-20 8 20 8 c29 11 65
52 65 74 0 10 4 20 9 22 4 2 12 13 15 26 6 17 3 22 -11 22 -15 0 -15 2 -3 9 8
6 17 8 21 6 3 -3 4 7 1 20 -2 15 0 25 7 25 15 0 14 27 -1 33 -8 3 -6 6 5 6 10
1 17 9 17 21 0 12 7 20 18 20 13 0 14 2 4 9 -11 7 -11 9 1 14 8 3 15 17 15 31
0 14 7 33 17 42 17 17 17 18 -1 25 -17 7 -17 8 4 8 22 1 33 21 11 21 -8 0 -8
5 1 15 7 8 19 15 26 15 8 0 14 5 14 10 0 6 -7 10 -16 10 -14 0 -14 2 0 15 10
11 14 29 12 55 -2 22 1 40 6 40 5 0 7 8 4 18 -3 9 1 30 9 46 8 15 15 35 15 43
0 19 20 5 68 -46z m3229 -499 c6 -4 -14 -7 -45 -7 -67 0 -231 -30 -246 -45 -5
-5 -21 -10 -35 -10 -23 1 -21 3 14 20 22 11 47 19 56 20 8 0 19 4 25 9 5 5 20
11 34 13 51 7 185 8 197 0z m-357 -67 c0 -2 -9 -9 -20 -15 -12 -6 -20 -7 -20
-1 0 5 8 12 18 14 9 3 18 5 20 6 1 0 2 -1 2 -4z m937 -31 c-3 -3 -12 -4 -19
-1 -8 3 -5 6 6 6 11 1 17 -2 13 -5z m40 -10 c-3 -3 -12 -4 -19 -1 -8 3 -5 6 6
6 11 1 17 -2 13 -5z m211 -31 c-10 -2 -26 -2 -35 0 -10 3 -2 5 17 5 19 0 27
-2 18 -5z m160 -30 c-10 -2 -26 -2 -35 0 -10 3 -2 5 17 5 19 0 27 -2 18 -5z
m89 -9 c-3 -3 -12 -4 -19 -1 -8 3 -5 6 6 6 11 1 17 -2 13 -5z m171 -31 c-10
-2 -26 -2 -35 0 -10 3 -2 5 17 5 19 0 27 -2 18 -5z m-1858 -50 c-6 -10 -24
-38 -40 -63 -30 -45 -35 -55 -73 -140 -20 -43 -37 -113 -58 -230 -6 -30 -16
-80 -24 -110 -7 -30 -16 -77 -20 -105 -4 -27 -11 -65 -17 -83 -5 -18 -14 -59
-19 -90 -6 -31 -14 -79 -19 -107 -6 -27 -14 -75 -19 -105 -5 -30 -14 -73 -20
-95 -13 -52 -27 -123 -41 -210 -6 -38 -18 -95 -25 -125 -15 -56 -44 -224 -53
-295 -2 -22 -8 -45 -13 -51 -5 -6 -14 -46 -20 -90 -6 -43 -21 -128 -34 -189
-13 -60 -31 -146 -40 -190 -38 -184 -43 -202 -44 -165 0 19 4 53 10 75 5 22
16 78 25 125 8 47 19 108 24 135 22 120 30 165 45 250 9 50 20 104 25 120 5
17 14 57 20 90 29 175 41 243 50 270 5 17 14 57 19 90 19 120 60 329 82 415 4
19 13 73 20 120 6 47 15 96 20 110 5 14 13 57 19 95 30 196 84 377 127 423 7
7 16 24 19 38 3 13 10 24 15 24 5 0 12 7 16 16 5 14 44 63 51 64 1 0 -2 -8 -8
-17z m3783 -270 c-7 -2 -19 -2 -25 0 -7 3 -2 5 12 5 14 0 19 -2 13 -5z m164
-29 c-3 -3 -12 -4 -19 -1 -8 3 -5 6 6 6 11 1 17 -2 13 -5z m12614 -308 c-5 -6
-11 -22 -14 -36 -3 -16 -5 -11 -6 17 -1 34 2 41 14 37 10 -4 12 -10 6 -18z
m-10851 4 c0 -5 -7 -10 -15 -10 -8 0 -15 5 -15 10 0 6 7 10 15 10 8 0 15 -4
15 -10z m-80 -19 c-23 -13 -90 -21 -90 -11 0 9 32 16 80 18 18 1 21 -1 10 -7z
m327 -7 c-3 -3 -12 -4 -19 -1 -8 3 -5 6 6 6 11 1 17 -2 13 -5z m156 -31 c-7
-2 -19 -2 -25 0 -7 3 -2 5 12 5 14 0 19 -2 13 -5z m264 -39 c-3 -3 -12 -4 -19
-1 -8 3 -5 6 6 6 11 1 17 -2 13 -5z m10160 -31 c-3 -10 -5 -4 -5 12 0 17 2 24
5 18 2 -7 2 -21 0 -30z m-10043 20 c4 -5 42 -13 84 -20 l77 -12 -93 4 c-54 3
-104 11 -120 20 l-27 14 36 1 c20 0 39 -3 43 -7z m256 -42 c0 -5 36 -13 80
-17 44 -3 80 -10 80 -14 0 -4 56 -13 125 -20 69 -8 125 -17 125 -20 0 -4 37
-11 81 -15 45 -3 89 -11 98 -16 9 -5 68 -16 131 -24 63 -8 156 -21 205 -30 50
-9 142 -24 205 -34 63 -9 122 -20 130 -23 8 -4 62 -12 120 -18 58 -6 114 -15
125 -20 11 -5 50 -12 88 -15 37 -4 67 -11 67 -16 0 -5 19 -9 43 -10 65 -1 213
-24 202 -31 -16 -9 -250 24 -510 71 -85 16 -247 42 -310 51 -33 4 -94 13 -135
20 -41 6 -100 15 -130 20 -30 5 -73 13 -95 19 -22 5 -103 19 -180 30 -77 11
-156 25 -175 31 -19 6 -88 17 -153 25 -64 8 -126 19 -137 25 -10 5 -36 10 -57
10 -21 1 -51 7 -68 15 l-30 13 38 1 c20 1 37 -3 37 -8z m9777 -43 c-3 -8 -6
-5 -6 6 -1 11 2 17 5 13 3 -3 4 -12 1 -19z m-25 -135 c-3 -16 -7 -22 -10 -15
-4 13 4 42 11 42 2 0 2 -12 -1 -27z m-11358 -25 c-4 -13 -11 -26 -16 -29 -18
-12 -80 -206 -94 -294 -7 -49 -22 -128 -32 -175 -10 -47 -24 -119 -31 -160 -7
-41 -19 -98 -27 -126 -8 -28 -14 -62 -14 -76 0 -14 -4 -38 -9 -54 -5 -16 -14
-63 -21 -104 -7 -41 -18 -97 -25 -125 -8 -27 -16 -72 -20 -100 -3 -27 -13 -81
-21 -120 -33 -149 -43 -202 -49 -245 -3 -25 -12 -74 -20 -110 -21 -95 -32
-156 -45 -235 -7 -38 -18 -92 -26 -119 -8 -26 -14 -57 -14 -67 0 -10 -4 -38
-10 -61 -17 -78 -53 -262 -66 -343 -13 -78 -22 -125 -49 -235 -7 -30 -16 -80
-20 -110 -3 -30 -12 -82 -20 -115 -8 -33 -24 -112 -35 -175 -12 -63 -28 -143
-36 -177 -8 -34 -14 -72 -14 -84 0 -13 -4 -36 -9 -53 -6 -17 -15 -65 -22 -106
-6 -41 -17 -100 -24 -130 -8 -30 -16 -80 -20 -110 -3 -30 -14 -77 -23 -105
-23 -71 -23 -366 -1 -410 9 -16 19 -45 22 -63 16 -83 173 -284 252 -322 17 -8
32 -18 35 -21 5 -6 80 -42 150 -72 19 -8 64 -18 100 -21 36 -4 97 -13 135 -21
66 -13 194 -35 415 -71 52 -9 118 -19 145 -24 28 -5 84 -14 125 -20 41 -6 107
-17 145 -25 39 -8 106 -19 150 -24 44 -6 130 -19 190 -31 61 -11 159 -27 218
-35 60 -8 127 -19 150 -24 23 -5 76 -14 117 -21 112 -16 197 -30 275 -45 73
-14 147 -26 275 -46 41 -6 95 -15 120 -20 25 -6 95 -16 155 -24 61 -8 153 -23
205 -35 52 -11 142 -27 200 -35 58 -8 155 -23 215 -34 61 -12 124 -21 141 -21
16 0 39 -7 50 -15 17 -14 13 -15 -46 -9 -36 3 -72 8 -80 11 -8 3 -69 13 -135
24 -66 10 -158 25 -205 33 -47 8 -102 15 -123 15 -21 1 -46 5 -56 11 -10 5
-49 14 -87 20 -101 14 -306 47 -409 65 -49 9 -117 20 -150 25 -33 5 -87 14
-120 20 -64 12 -154 27 -355 59 -69 11 -134 23 -145 26 -11 3 -67 12 -125 20
-117 16 -254 40 -285 50 -11 3 -67 12 -125 20 -169 24 -258 39 -266 48 -4 4
-21 7 -38 7 -47 0 -199 21 -221 31 -11 5 -51 13 -90 18 -38 6 -99 15 -135 21
-36 6 -94 15 -130 20 -171 23 -256 45 -320 81 -8 5 -25 14 -38 19 -13 6 -29
16 -37 23 -7 6 -25 21 -41 32 -15 11 -37 29 -49 40 -29 28 -115 139 -115 150
0 5 -6 16 -14 24 -7 9 -18 30 -24 46 -6 17 -22 62 -36 100 -45 122 -45 276 -1
470 8 39 22 108 30 155 8 47 21 114 29 150 16 70 27 128 52 260 9 47 22 114
29 150 7 36 21 108 29 160 9 52 23 118 31 145 8 28 17 82 21 120 4 39 11 81
16 95 6 14 14 48 19 75 29 167 40 227 53 285 8 36 17 79 20 95 11 63 46 253
61 325 8 41 22 118 31 170 8 52 19 102 24 111 4 8 13 58 20 110 6 51 16 106
22 120 5 15 13 51 18 80 20 120 40 228 55 299 22 103 32 153 46 235 6 39 18
92 25 119 8 27 14 61 14 75 0 13 4 38 9 55 6 17 15 65 22 106 22 133 57 262
91 329 43 85 78 130 62 79z m3631 -134 c41 -4 75 -11 75 -15 0 -5 17 -9 38 -9
51 0 193 -20 213 -30 8 -4 47 -11 85 -15 38 -4 74 -10 79 -14 6 -3 64 -14 130
-23 119 -17 303 -46 465 -74 47 -8 139 -23 205 -34 66 -10 140 -23 165 -29 25
-6 62 -10 83 -11 20 0 37 -4 37 -10 0 -20 -153 -5 -250 25 -25 8 -87 17 -139
21 -52 3 -108 11 -125 16 -37 11 -98 22 -278 48 -75 11 -156 24 -180 30 -46
11 -193 36 -298 50 -36 5 -108 16 -160 26 -52 9 -117 20 -145 25 -96 16 -115
21 -109 31 3 5 12 7 20 4 7 -3 47 -8 89 -12z m7682 -66 c-3 -8 -6 -5 -6 6 -1
11 2 17 5 13 3 -3 4 -12 1 -19z m-14387 -67 c0 -30 -21 -46 -37 -30 -16 16 -3
59 18 59 14 0 19 -7 19 -29z m-416 -46 c90 -27 115 -86 85 -200 -22 -85 -38
-97 -134 -97 -99 0 -113 12 -136 120 -8 41 -8 64 1 95 25 91 77 114 184 82z
m14743 -177 c-3 -7 -5 -2 -5 12 0 14 2 19 5 13 2 -7 2 -19 0 -25z m-19635 -3
c29 -8 71 -21 93 -29 22 -8 48 -15 57 -16 9 0 18 -3 20 -7 2 -5 23 -21 48 -38
25 -16 48 -34 52 -40 3 -5 16 -21 28 -35 26 -29 73 -127 89 -186 21 -78 14
-176 -24 -334 -7 -30 -16 -77 -20 -105 -6 -53 -28 -165 -50 -255 -8 -30 -17
-84 -20 -120 -4 -36 -12 -76 -17 -90 -6 -14 -14 -47 -18 -75 -18 -110 -37
-209 -65 -345 -18 -89 -32 -161 -44 -234 -5 -29 -14 -71 -19 -92 -6 -22 -13
-61 -17 -89 -5 -46 -12 -80 -51 -250 -7 -33 -16 -85 -19 -115 -4 -30 -13 -77
-20 -105 -7 -27 -18 -81 -25 -120 -21 -127 -31 -180 -42 -220 -6 -22 -15 -65
-20 -95 -5 -30 -13 -75 -18 -100 -4 -25 -13 -75 -19 -111 -6 -37 -15 -77 -19
-90 -5 -13 -12 -51 -16 -84 -4 -33 -13 -87 -20 -120 -33 -141 -46 -203 -51
-245 -3 -25 -13 -76 -21 -115 -20 -98 -31 -150 -44 -225 -6 -36 -18 -96 -26
-135 -23 -110 -32 -155 -44 -225 -6 -36 -17 -92 -25 -125 -8 -33 -17 -82 -20
-110 -3 -27 -12 -77 -19 -110 -36 -154 -46 -204 -51 -250 -4 -27 -12 -77 -20
-110 -13 -57 -21 -101 -45 -232 -6 -32 -17 -87 -24 -123 -26 -120 -34 -165
-46 -230 -6 -36 -17 -92 -25 -125 -8 -33 -17 -82 -20 -110 -3 -27 -13 -81 -21
-120 -9 -38 -22 -97 -29 -130 -8 -33 -17 -82 -20 -110 -3 -27 -12 -77 -20
-110 -13 -57 -21 -99 -45 -232 -6 -32 -17 -87 -24 -123 -25 -119 -34 -164 -46
-230 -6 -36 -16 -85 -22 -110 -5 -25 -16 -81 -23 -125 -21 -125 -43 -237 -54
-270 -5 -16 -12 -55 -15 -85 -14 -120 -69 -351 -91 -380 -7 -8 -18 -30 -26
-47 -8 -18 -17 -33 -21 -33 -5 0 -8 -4 -8 -10 0 -14 -91 -100 -141 -132 -47
-30 -150 -58 -213 -58 -77 0 -213 40 -284 83 -114 69 -198 199 -212 328 -8 68
2 219 16 240 7 12 23 93 48 239 8 47 19 105 24 130 6 25 16 74 22 110 14 80
28 147 45 225 8 33 16 76 19 95 6 43 21 122 41 220 9 41 22 113 29 160 8 47
20 108 26 135 30 127 40 174 46 220 3 28 10 67 16 89 5 21 14 63 19 92 12 73
26 144 44 234 9 41 20 98 25 125 25 139 32 175 41 229 5 32 14 66 18 75 5 9
12 45 16 81 3 36 12 90 20 120 19 79 43 198 50 250 4 25 12 72 20 105 13 60
24 116 45 235 6 36 17 92 25 125 7 33 19 89 25 125 16 91 29 154 45 230 8 36
17 88 20 115 4 28 13 75 20 105 22 92 44 202 50 255 4 28 13 75 20 105 8 30
19 84 25 120 17 101 30 170 45 235 14 65 27 131 45 240 7 39 18 93 25 120 7
28 16 73 19 100 4 28 13 82 22 120 38 171 44 203 50 250 3 28 12 75 19 105 13
53 20 87 45 230 6 36 17 92 25 125 13 59 22 104 45 235 6 36 17 92 25 125 8
33 19 94 25 135 6 41 15 89 20 105 11 39 26 116 45 235 9 52 20 109 25 125 5
17 19 84 30 150 39 225 67 338 92 380 10 17 22 41 28 54 16 35 137 149 179
168 124 55 206 65 303 38z m19595 -207 c-3 -7 -5 -2 -5 12 0 14 2 19 5 13 2
-7 2 -19 0 -25z m-3827 -56 c8 -3 35 -11 60 -18 l45 -13 -60 5 c-67 6 -146 23
-158 34 -9 8 90 2 113 -8z m137 -38 c-3 -3 -12 -4 -19 -1 -8 3 -5 6 6 6 11 1
17 -2 13 -5z m-1137 -74 c0 -11 -4 -20 -9 -20 -5 0 -12 -16 -15 -35 -4 -19
-11 -35 -16 -35 -6 0 -10 -7 -10 -15 0 -8 -10 -31 -22 -52 -11 -21 -34 -63
-50 -93 -16 -30 -33 -59 -37 -65 -5 -5 -12 -21 -16 -35 -4 -14 -20 -43 -34
-65 -40 -62 -44 -69 -100 -170 -12 -22 -33 -58 -47 -80 -13 -22 -27 -47 -31
-55 -4 -8 -12 -18 -19 -23 -7 -4 -15 -21 -19 -37 -4 -17 -10 -30 -15 -30 -8 0
-21 -19 -52 -80 -7 -14 -15 -27 -19 -30 -3 -3 -14 -20 -24 -37 -11 -18 -23
-33 -27 -33 -4 0 -8 -6 -8 -14 0 -7 -6 -19 -13 -25 -8 -6 -24 -31 -37 -56 -13
-25 -26 -45 -30 -45 -4 0 -22 -21 -40 -47 -19 -27 -40 -52 -47 -56 -7 -4 -13
-13 -13 -20 -1 -16 -36 -57 -49 -57 -6 0 -11 -7 -11 -15 0 -8 -5 -15 -10 -15
-18 0 0 65 41 147 21 43 39 83 39 90 0 7 4 13 9 13 5 0 13 10 17 23 4 12 10
24 13 27 4 3 16 23 27 45 37 73 79 150 85 155 4 3 20 28 35 56 32 57 101 174
124 210 8 13 46 73 84 134 37 60 77 119 87 131 11 12 19 26 19 31 0 8 49 78
80 115 5 7 10 15 10 18 0 6 43 66 65 91 6 7 21 26 35 43 28 35 50 40 50 11z
m1265 2 c-3 -3 -11 0 -18 7 -9 10 -8 11 6 5 10 -3 15 -9 12 -12z m85 -62 c8
-5 11 -10 5 -10 -5 0 -17 5 -25 10 -8 5 -10 10 -5 10 6 0 17 -5 25 -10z m123
-160 c3 -11 3 -20 1 -20 -2 0 -8 9 -14 20 -6 11 -7 20 -2 20 6 0 12 -9 15 -20z
m41 -90 c4 -24 3 -28 -2 -15 -14 31 -24 83 -13 65 5 -8 11 -31 15 -50z m23
-72 c-3 -7 -5 -2 -5 12 0 14 2 19 5 13 2 -7 2 -19 0 -25z m-1565 -43 c-2 -14
-8 -25 -13 -25 -4 0 -13 -15 -20 -34 -13 -37 -49 -67 -49 -41 0 8 9 23 20 32
11 10 20 23 20 30 0 7 5 13 10 13 6 0 10 9 10 19 0 11 6 22 13 24 6 3 13 6 13
6 1 1 -1 -10 -4 -24z m1595 -97 c-2 -13 -4 -3 -4 22 0 25 2 35 4 23 2 -13 2
-33 0 -45z m-1687 -43 c0 -18 -21 -65 -30 -65 -3 0 -12 -16 -20 -35 -7 -19
-19 -36 -27 -39 -7 -3 -13 -12 -13 -21 0 -8 -4 -15 -8 -15 -4 0 -21 -25 -37
-55 -17 -30 -33 -55 -37 -55 -5 0 -8 -7 -8 -15 0 -8 -4 -15 -10 -15 -5 0 -10
-6 -10 -14 0 -8 -7 -16 -15 -20 -8 -3 -15 -12 -15 -21 0 -8 -4 -15 -10 -15 -5
0 -16 -15 -24 -32 -7 -18 -25 -46 -40 -61 -14 -15 -26 -33 -26 -39 0 -6 -3 -8
-7 -5 -9 9 37 97 63 122 12 11 24 34 28 50 4 17 19 44 34 60 15 17 38 51 50
78 12 26 27 47 32 47 6 0 10 5 10 12 0 6 10 25 23 42 13 17 35 52 50 79 28 47
47 60 47 32z m1687 -147 c-2 -18 -4 -6 -4 27 0 33 2 48 4 33 2 -15 2 -42 0
-60z m-20 -90 c-3 -7 -5 -2 -5 12 0 14 2 19 5 13 2 -7 2 -19 0 -25z m-13690
-35 c-3 -10 -5 -4 -5 12 0 17 2 24 5 18 2 -7 2 -21 0 -30z m13680 -35 c-3 -7
-5 -2 -5 12 0 14 2 19 5 13 2 -7 2 -19 0 -25z m-2881 -14 c-4 -9 -9 -15 -11
-12 -3 3 -3 13 1 22 4 9 9 15 11 12 3 -3 3 -13 -1 -22z m-10819 -26 c-3 -8 -6
-5 -6 6 -1 11 2 17 5 13 3 -3 4 -12 1 -19z m13680 -35 c-3 -10 -5 -4 -5 12 0
17 2 24 5 18 2 -7 2 -21 0 -30z m-2906 -14 c-5 -13 -10 -19 -10 -12 -1 15 10
45 15 40 3 -2 0 -15 -5 -28z m2896 -51 c-3 -8 -6 -5 -6 6 -1 11 2 17 5 13 3
-3 4 -12 1 -19z m-10 -70 c-3 -8 -6 -5 -6 6 -1 11 2 17 5 13 3 -3 4 -12 1 -19z
m-1984 -58 c-3 -12 -8 -19 -11 -16 -5 6 5 36 12 36 2 0 2 -9 -1 -20z m1964
-17 c-3 -10 -5 -4 -5 12 0 17 2 24 5 18 2 -7 2 -21 0 -30z m-50 -290 c-3 -10
-5 -4 -5 12 0 17 2 24 5 18 2 -7 2 -21 0 -30z m-10273 11 c8 -22 7 -67 -2 -82
-13 -19 -42 -3 -42 24 0 26 20 74 31 74 4 0 10 -7 13 -16z m10253 -86 c-3 -7
-5 -2 -5 12 0 14 2 19 5 13 2 -7 2 -19 0 -25z m-11546 -12 c4 -4 16 -3 27 3
14 8 21 8 24 0 2 -6 38 -11 86 -12 45 -1 82 -5 82 -9 0 -5 19 -8 43 -8 23 0
66 -7 96 -15 30 -8 57 -12 61 -10 3 2 40 -5 81 -17 40 -11 81 -21 90 -22 9 -1
28 -10 42 -19 15 -9 30 -17 35 -17 12 0 41 -33 61 -71 17 -31 17 -37 -1 -123
-18 -91 -34 -132 -74 -193 -22 -33 -76 -83 -90 -83 -4 0 -15 -6 -23 -13 -37
-32 -194 -73 -336 -87 -89 -9 -338 -5 -357 7 -4 2 -31 10 -60 18 -138 36 -225
107 -284 230 -38 82 -53 193 -35 261 11 41 83 124 107 124 6 0 17 6 23 14 11
13 54 22 206 43 77 11 188 11 196 -1z m11536 -58 c-3 -7 -5 -2 -5 12 0 14 2
19 5 13 2 -7 2 -19 0 -25z m-13720 -185 c-3 -10 -5 -4 -5 12 0 17 2 24 5 18 2
-7 2 -21 0 -30z m-20 -75 c-3 -8 -6 -5 -6 6 -1 11 2 17 5 13 3 -3 4 -12 1 -19z
m-16 -109 l-11 -34 5 34 c3 18 6 45 6 60 l2 26 4 -26 c2 -15 -1 -42 -6 -60z
m13676 -51 c-3 -8 -6 -5 -6 6 -1 11 2 17 5 13 3 -3 4 -12 1 -19z m-13707 -119
c-37 -204 -44 -290 -32 -405 6 -58 16 -111 22 -119 7 -8 10 -20 7 -27 -4 -9
-6 -7 -6 4 -1 9 -5 18 -11 20 -5 2 -16 57 -25 123 -14 109 -14 130 1 245 9 68
19 132 24 140 4 8 11 40 15 70 7 56 13 75 21 67 3 -2 -5 -56 -16 -118z m9940
-543 l15 -29 6 39 c3 21 7 33 8 27 1 -16 52 -124 66 -141 5 -7 16 -19 23 -27
7 -8 11 -23 8 -32 -6 -21 9 -51 21 -40 4 5 1 12 -7 17 -8 5 -11 12 -7 16 7 7
46 -35 47 -51 0 -5 -4 -3 -10 5 -5 8 -12 11 -16 7 -7 -6 24 -38 162 -167 77
-72 175 -140 227 -157 9 -3 17 -9 17 -13 0 -4 10 -10 23 -14 38 -9 220 -111
225 -125 4 -11 -2 -12 -24 -7 -27 6 -172 74 -184 86 -10 10 -116 60 -128 60
-6 0 -12 5 -12 10 0 25 -29 7 -35 -22 -4 -17 -11 -36 -16 -42 -5 -6 -18 -22
-28 -36 -17 -22 -22 -23 -40 -12 -11 6 -26 12 -32 12 -16 0 28 -34 79 -60 23
-12 44 -26 47 -30 3 -5 22 -14 43 -21 20 -6 39 -15 42 -18 11 -13 87 -49 118
-56 17 -3 32 -10 32 -14 0 -4 24 -13 53 -21 28 -7 59 -16 67 -20 37 -18 161
-40 225 -40 59 -1 67 -2 50 -13 -26 -15 -194 -14 -249 3 -22 7 -74 23 -114 37
-41 14 -76 23 -78 20 -2 -2 11 -15 30 -28 77 -52 -17 -36 -111 19 -28 16 -60
33 -71 37 -12 3 -22 11 -22 16 0 5 -6 9 -14 9 -7 0 -44 15 -82 33 -38 19 -88
39 -111 46 -24 6 -43 16 -43 21 0 21 -41 9 -51 -14 -6 -13 -20 -27 -30 -29
-11 -3 -19 -14 -19 -26 0 -12 -4 -21 -10 -21 -5 0 -10 -9 -10 -20 0 -11 -4
-20 -10 -20 -5 0 -10 -9 -10 -19 0 -10 -7 -21 -15 -25 -8 -3 -15 -12 -15 -20
0 -8 -9 -18 -20 -21 -11 -3 -20 -13 -20 -21 0 -8 -4 -14 -9 -14 -5 0 -12 -13
-16 -30 -4 -16 -13 -30 -20 -30 -7 0 -20 -3 -28 -6 -12 -4 -13 2 -4 43 6 26
14 50 17 53 4 3 10 22 13 43 3 20 15 50 26 66 12 16 21 41 21 55 0 14 4 26 9
26 12 0 28 47 35 101 5 40 2 51 -20 74 -42 45 -134 171 -134 183 0 6 -20 28
-45 48 -36 31 -47 47 -56 90 -6 28 -9 64 -5 78 7 27 31 35 39 14 3 -8 6 -6 6
5 1 9 5 17 10 17 5 0 14 14 21 30 7 17 20 35 30 40 9 5 23 31 30 57 7 26 19
59 27 72 l15 23 17 -28 c9 -16 23 -42 31 -58z m-9926 -41 c3 -8 1 -15 -4 -15
-6 0 -10 7 -10 15 0 8 2 15 4 15 2 0 6 -7 10 -15z m26 -60 c0 -5 -5 -3 -10 5
-5 8 -10 20 -10 25 0 6 5 3 10 -5 5 -8 10 -19 10 -25z m114 -142 c38 -40 75
-73 82 -73 7 0 14 -3 16 -7 4 -10 75 -55 113 -72 46 -20 104 -37 165 -49 30
-6 82 -16 115 -22 33 -6 103 -18 155 -25 94 -14 145 -23 290 -51 41 -7 101
-17 133 -20 32 -4 55 -9 53 -12 -7 -7 -238 18 -261 28 -11 5 -54 14 -95 20
-313 46 -435 68 -515 91 -51 14 -149 67 -185 99 -16 14 -40 34 -54 44 -14 10
-26 23 -26 27 0 5 -8 17 -17 27 -37 39 -83 105 -83 119 0 4 10 -6 23 -22 12
-16 53 -62 91 -102z m9997 0 c13 -16 12 -17 -3 -4 -17 13 -22 21 -14 21 2 0
10 -8 17 -17z m-8734 -353 c42 -6 79 -13 82 -16 3 -4 -14 -4 -39 -1 -25 4 -73
9 -107 13 -35 4 -63 11 -63 16 0 6 11 7 25 4 14 -4 60 -11 102 -16z m253 -40
c79 -10 143 -33 70 -25 -90 9 -209 30 -217 39 -5 5 11 6 37 1 25 -4 74 -11
110 -15z m210 -39 c0 -8 -79 -3 -89 5 -2 2 17 4 42 4 26 0 47 -4 47 -9z m190
-30 c61 -11 4 -12 -65 -1 -41 6 -44 7 -15 8 19 0 55 -3 80 -7z m215 -36 c140
-20 265 -43 300 -54 l30 -9 -37 -1 c-20 -1 -39 3 -42 8 -3 5 -43 12 -88 16
-46 4 -85 11 -88 15 -3 4 -57 14 -120 22 -63 9 -101 16 -85 16 17 1 75 -5 130
-13z m2115 -45 c-6 -11 -13 -20 -16 -20 -2 0 0 9 6 20 6 11 13 20 16 20 2 0 0
-9 -6 -20z m-1655 -30 c40 -6 43 -7 15 -8 -19 0 -60 3 -90 8 -48 6 -50 7 -15
8 22 0 63 -3 90 -8z m165 -30 c48 -6 50 -7 15 -8 -22 0 -62 3 -90 8 -40 6 -43
7 -15 8 19 0 60 -3 90 -8z m185 -30 c28 -7 28 -8 -12 -9 -23 0 -45 4 -48 9 -7
11 16 11 60 0z m1185 -10 c-24 -15 -36 -11 -14 4 10 8 21 12 24 10 2 -3 -2 -9
-10 -14z m-1035 -15 l40 -14 -35 -1 c-20 0 -40 4 -45 9 -6 5 -26 11 -45 14
l-35 4 40 1 c22 1 58 -5 80 -13z m1005 -9 c0 -2 -9 -6 -20 -9 -11 -3 -18 -1
-14 4 5 9 34 13 34 5z m-856 -15 c3 -5 -16 -6 -42 -4 -69 7 -74 11 -15 12 28
1 54 -3 57 -8z m291 -48 c47 -11 121 -17 224 -17 90 -1 138 -4 115 -8 -85 -15
-379 1 -394 22 -3 4 -43 12 -90 18 l-85 11 80 -5 c44 -3 112 -12 150 -21z
m470 17 c-11 -5 -27 -9 -35 -9 -9 0 -8 4 5 9 11 5 27 9 35 9 9 0 8 -4 -5 -9z
m-52 -27 c-7 -2 -19 -2 -25 0 -7 3 -2 5 12 5 14 0 19 -2 13 -5z m-3960 -10
c-7 -2 -19 -2 -25 0 -7 3 -2 5 12 5 14 0 19 -2 13 -5z m-63 -18 c-7 -8 -22
-14 -34 -14 -20 2 -20 2 2 6 12 2 22 9 22 14 0 5 5 9 11 9 8 0 8 -5 -1 -15z
m-110 -39 c0 -2 -18 -13 -39 -23 -23 -12 -37 -15 -34 -8 2 7 19 17 36 23 18 5
33 10 35 11 1 1 2 -1 2 -3z m9865 -16 c3 -5 1 -10 -4 -10 -6 0 -11 5 -11 10 0
6 2 10 4 10 3 0 8 -4 11 -10z m-9985 -65 c-7 -8 -17 -15 -23 -15 -6 0 -2 7 9
15 25 19 30 19 14 0z m-127 -122 c-3 -10 -21 -39 -38 -64 -18 -25 -36 -57 -40
-70 -4 -13 -18 -46 -30 -74 -13 -27 -28 -77 -35 -110 -7 -33 -18 -87 -26 -121
-8 -33 -14 -71 -14 -84 0 -13 -4 -37 -9 -54 -6 -17 -15 -65 -22 -106 -6 -41
-17 -97 -25 -125 -7 -27 -16 -75 -19 -105 -4 -30 -13 -75 -20 -100 -29 -99
-48 -248 -42 -327 6 -86 36 -223 49 -223 4 0 8 -8 8 -17 0 -37 69 -147 133
-214 37 -38 72 -69 77 -69 6 0 10 -4 10 -10 0 -5 7 -10 15 -10 8 0 15 -4 15
-10 0 -9 31 -25 135 -69 28 -11 79 -25 115 -31 36 -5 103 -16 150 -24 47 -8
135 -21 195 -30 61 -9 133 -21 160 -27 28 -5 75 -14 105 -19 119 -19 248 -41
320 -54 41 -8 105 -20 143 -25 167 -27 206 -33 267 -46 36 -8 94 -17 130 -20
36 -4 79 -11 96 -16 17 -5 59 -13 95 -19 64 -9 334 -52 439 -70 102 -17 294
-49 365 -61 39 -6 79 -15 90 -19 18 -8 18 -9 -5 -9 -14 0 -65 7 -115 15 -49 9
-124 21 -165 28 -41 7 -82 15 -90 18 -8 4 -64 12 -125 18 -60 7 -114 16 -120
20 -5 4 -62 13 -125 20 -63 7 -122 16 -132 21 -9 5 -49 12 -90 15 -40 4 -77
10 -83 14 -5 4 -59 13 -120 20 -60 6 -123 16 -140 21 -16 5 -59 14 -95 19 -62
10 -99 16 -255 39 -38 6 -108 17 -155 26 -102 18 -197 33 -265 41 -27 3 -64
10 -80 15 -17 5 -76 16 -130 24 -319 47 -401 68 -514 136 -56 33 -132 105
-182 173 -21 28 -42 56 -47 62 -5 5 -15 27 -21 47 -7 20 -17 39 -22 42 -5 4
-9 14 -9 23 0 9 -7 29 -14 44 -28 53 -39 205 -26 340 7 68 16 128 20 133 4 6
11 33 14 60 4 28 11 64 17 80 5 17 16 73 24 125 16 103 38 216 47 240 3 8 11
51 18 95 15 100 37 187 61 242 11 24 19 50 19 58 0 8 4 15 9 15 5 0 15 17 22
38 6 20 18 41 25 45 8 4 14 12 14 17 0 7 41 59 47 60 1 0 0 -8 -4 -17z m2574
-49 c-3 -3 -12 -4 -19 -1 -8 3 -5 6 6 6 11 1 17 -2 13 -5z m340 -50 c-3 -3
-12 -4 -19 -1 -8 3 -5 6 6 6 11 1 17 -2 13 -5z m246 -41 c-7 -2 -19 -2 -25 0
-7 3 -2 5 12 5 14 0 19 -2 13 -5z m410 -70 c-7 -2 -19 -2 -25 0 -7 3 -2 5 12
5 14 0 19 -2 13 -5z m344 -59 c-3 -3 -12 -4 -19 -1 -8 3 -5 6 6 6 11 1 17 -2
13 -5z m80 -10 c-3 -3 -12 -4 -19 -1 -8 3 -5 6 6 6 11 1 17 -2 13 -5z m170
-30 c-3 -3 -12 -4 -19 -1 -8 3 -5 6 6 6 11 1 17 -2 13 -5z m76 -11 c-7 -2 -19
-2 -25 0 -7 3 -2 5 12 5 14 0 19 -2 13 -5z m1354 -229 c-3 -3 -12 -4 -19 -1
-8 3 -5 6 6 6 11 1 17 -2 13 -5z m161 -21 c-10 -2 -26 -2 -35 0 -10 3 -2 5 17
5 19 0 27 -2 18 -5z m75 -20 c-7 -2 -19 -2 -25 0 -7 3 -2 5 12 5 14 0 19 -2
13 -5z m90 -10 c-7 -2 -19 -2 -25 0 -7 3 -2 5 12 5 14 0 19 -2 13 -5z m222
-33 c19 -5 6 -6 -35 -3 -36 3 -67 7 -69 9 -8 7 73 2 104 -6z m358 -67 c-13 -2
-33 -2 -45 0 -13 2 -3 4 22 4 25 0 35 -2 23 -4z m90 -10 c-7 -2 -21 -2 -30 0
-10 3 -4 5 12 5 17 0 24 -2 18 -5z m80 -20 c-7 -2 -19 -2 -25 0 -7 3 -2 5 12
5 14 0 19 -2 13 -5z m179 -26 c10 -17 5 -18 -28 -7 -16 5 -51 14 -79 19 -46 9
-43 10 25 5 41 -3 78 -11 82 -17z m3593 -33 c39 -7 93 -16 120 -19 28 -3 82
-12 120 -20 76 -15 246 -44 335 -56 55 -7 153 -23 245 -39 28 -5 82 -14 120
-21 39 -6 102 -17 140 -24 39 -8 95 -17 125 -20 55 -6 176 -28 260 -46 25 -5
92 -16 150 -24 58 -7 130 -19 160 -24 30 -6 123 -22 205 -35 83 -14 173 -30
200 -37 28 -6 106 -11 175 -11 110 0 133 3 195 26 81 30 75 29 75 16 0 -5 -5
-10 -11 -10 -6 0 -25 -6 -42 -14 -18 -8 -50 -19 -72 -25 -57 -15 -245 -13
-350 5 -90 15 -228 39 -275 48 -14 3 -63 10 -110 16 -47 6 -103 15 -125 21
-22 5 -87 16 -145 24 -124 18 -257 41 -285 49 -11 4 -69 13 -130 21 -60 9
-148 22 -195 31 -126 23 -188 32 -260 40 -36 4 -69 10 -75 14 -5 4 -39 11 -75
15 -36 3 -78 11 -95 15 -16 5 -79 16 -140 25 -60 9 -166 25 -235 36 -69 11
-142 23 -162 26 -21 3 -38 10 -38 17 0 13 65 7 195 -20z m-3517 19 c-10 -2
-28 -2 -40 0 -13 2 -5 4 17 4 22 1 32 -1 23 -4z m78 -12 c-3 -5 -15 -7 -26 -4
-28 7 -25 13 6 13 14 0 23 -4 20 -9z m172 -23 c53 -6 99 -15 102 -19 3 -4 19
-9 35 -12 17 -2 8 -3 -20 0 -75 6 -274 41 -242 42 16 1 72 -4 125 -11z m245
-45 c-7 -2 -19 -2 -25 0 -7 3 -2 5 12 5 14 0 19 -2 13 -5z m222 -34 c27 -6 13
-7 -45 -3 -47 3 -92 10 -100 15 -16 10 78 2 145 -12z m123 -26 c-10 -2 -28 -2
-40 0 -13 2 -5 4 17 4 22 1 32 -1 23 -4z m92 -13 c0 -13 -30 -13 -50 0 -11 7
-7 10 18 10 17 0 32 -4 32 -10z m125 -20 c27 -7 26 -8 -15 -8 -25 0 -54 3 -65
8 -16 7 -13 9 15 8 19 0 49 -4 65 -8z m129 -20 c-6 -6 -21 -6 -39 -1 -30 9
-30 9 10 10 25 1 36 -2 29 -9z m64 -17 c-10 -2 -28 -2 -40 0 -13 2 -5 4 17 4
22 1 32 -1 23 -4z m90 -10 c-10 -2 -28 -2 -40 0 -13 2 -5 4 17 4 22 1 32 -1
23 -4z m102 -12 c0 -4 35 -11 78 -15 42 -3 79 -11 80 -16 2 -6 20 -10 40 -11
21 0 57 -4 82 -9 35 -7 27 -7 -35 -4 -84 6 -280 41 -305 55 -10 6 -3 8 23 9
20 0 37 -4 37 -9z m4844 -35 c-5 -12 -45 -36 -62 -36 -5 0 57 48 65 50 1 0 0
-6 -3 -14z m-4441 -33 c-7 -2 -21 -2 -30 0 -10 3 -4 5 12 5 17 0 24 -2 18 -5z
m85 -20 c-10 -2 -26 -2 -35 0 -10 3 -2 5 17 5 19 0 27 -2 18 -5z m4263 -8
c-18 -8 -36 -15 -40 -15 -13 1 45 29 59 29 8 0 0 -6 -19 -14z m-4193 -2 c-10
-2 -26 -2 -35 0 -10 3 -2 5 17 5 19 0 27 -2 18 -5z m180 -30 c-10 -2 -26 -2
-35 0 -10 3 -2 5 17 5 19 0 27 -2 18 -5z m102 -12 c0 -6 17 -12 38 -14 35 -3
34 -4 -9 -5 -26 -1 -60 5 -75 13 l-29 15 38 0 c20 0 37 -4 37 -9z m666 -110
c5 -5 25 -12 44 -14 19 -2 7 -4 -27 -3 -35 1 -68 7 -75 14 -9 9 -5 12 18 12
17 0 34 -4 40 -9z m142 -28 c-10 -2 -26 -2 -35 0 -10 3 -2 5 17 5 19 0 27 -2
18 -5z m90 -20 c-10 -2 -26 -2 -35 0 -10 3 -2 5 17 5 19 0 27 -2 18 -5z m85
-10 c-13 -2 -33 -2 -45 0 -13 2 -3 4 22 4 25 0 35 -2 23 -4z m97 -13 c0 -5 17
-11 38 -12 36 -1 36 -1 5 -5 -17 -2 -51 3 -75 11 l-43 15 38 1 c20 0 37 -4 37
-10z m148 -27 c-10 -2 -26 -2 -35 0 -10 3 -2 5 17 5 19 0 27 -2 18 -5z m175
-30 c-7 -2 -21 -2 -30 0 -10 3 -4 5 12 5 17 0 24 -2 18 -5z m97 -13 c0 -5 19
-11 43 -12 39 -1 40 -2 7 -5 -19 -2 -55 3 -80 11 l-45 14 38 1 c20 1 37 -3 37
-9z m165 -30 c8 -13 -15 -13 -35 0 -12 8 -11 10 7 10 12 0 25 -4 28 -10z m148
-27 c-7 -2 -19 -2 -25 0 -7 3 -2 5 12 5 14 0 19 -2 13 -5z m102 -13 c-8 -13
-45 -13 -65 0 -11 7 -3 10 28 10 26 0 41 -4 37 -10z m-1838 -36 c-9 -9 -28 6
-21 18 4 6 10 6 17 -1 6 -6 8 -13 4 -17z m2036 10 c40 -4 64 -11 59 -16 -10
-10 -189 10 -212 24 -10 6 3 7 35 4 28 -3 81 -8 118 -12z m202 -34 c22 0 26
-3 17 -12 -9 -9 -24 -9 -64 0 -91 20 -94 21 -38 17 30 -3 68 -5 85 -5z m88
-27 c-7 -2 -19 -2 -25 0 -7 3 -2 5 12 5 14 0 19 -2 13 -5z m203 -22 c5 -5 23
-11 39 -14 19 -2 12 -4 -20 -5 -27 -1 -63 5 -80 13 l-30 13 41 1 c22 1 44 -3
50 -8z m149 -31 c-8 -13 -35 -13 -55 0 -11 7 -5 10 23 10 23 0 36 -4 32 -10z
m153 -27 c-10 -2 -26 -2 -35 0 -10 3 -2 5 17 5 19 0 27 -2 18 -5z m75 -10 c-7
-2 -19 -2 -25 0 -7 3 -2 5 12 5 14 0 19 -2 13 -5z m85 -20 c-10 -2 -26 -2 -35
0 -10 3 -2 5 17 5 19 0 27 -2 18 -5z m100 -13 c-10 -6 -25 -7 -40 -1 -20 9
-18 10 17 10 31 0 36 -2 23 -9z m169 -26 c-3 -3 -12 -4 -19 -1 -8 3 -5 6 6 6
11 1 17 -2 13 -5z m69 -13 c-3 -5 -15 -7 -26 -4 -28 7 -25 13 6 13 14 0 23 -4
20 -9z m89 -26 c53 -17 34 -18 -35 0 -30 7 -44 13 -30 13 14 0 43 -5 65 -13z
m120 -65 c3 -6 -1 -7 -9 -4 -18 7 -21 14 -7 14 6 0 13 -4 16 -10z m115 -90 c0
-4 11 -19 25 -34 30 -33 49 -66 41 -74 -3 -3 -6 0 -6 6 0 7 -15 29 -33 49 -56
65 -62 74 -43 67 9 -3 16 -10 16 -14z m104 -169 c-6 -7 -11 2 -17 34 l-6 30
13 -30 c8 -16 12 -32 10 -34z m35 -66 c0 -5 -4 -3 -9 5 -5 8 -9 22 -9 30 0 16
17 -16 18 -35z m18 -47 c-3 -8 -6 -5 -6 6 -1 11 2 17 5 13 3 -3 4 -12 1 -19z
m10 -55 c-3 -10 -5 -4 -5 12 0 17 2 24 5 18 2 -7 2 -21 0 -30z m30 -195 c-2
-13 -4 -3 -4 22 0 25 2 35 4 23 2 -13 2 -33 0 -45z m-10185 -18 c63 -14 160
-30 268 -45 52 -7 111 -18 130 -24 19 -6 51 -11 71 -11 20 0 49 -5 66 -10 16
-6 79 -17 139 -25 60 -7 132 -18 159 -24 74 -16 232 -43 300 -51 33 -5 103
-16 155 -25 52 -9 122 -20 155 -25 171 -26 202 -31 230 -39 17 -5 62 -12 100
-15 39 -4 99 -13 135 -21 107 -24 221 -44 290 -50 36 -3 94 -12 130 -19 36 -8
101 -19 145 -26 95 -13 175 -27 270 -45 39 -7 104 -19 145 -25 73 -11 106 -16
240 -40 36 -7 97 -16 135 -21 39 -5 82 -14 98 -19 15 -5 55 -12 90 -15 34 -4
89 -12 122 -20 33 -7 87 -16 120 -19 33 -4 92 -13 130 -21 62 -13 185 -33 330
-56 28 -4 91 -15 140 -23 107 -19 206 -34 295 -44 36 -4 70 -11 76 -15 7 -4
47 -12 90 -17 103 -13 254 -39 329 -55 33 -8 89 -16 125 -20 36 -3 97 -12 135
-20 39 -7 102 -19 140 -24 39 -6 111 -18 160 -26 50 -9 146 -25 215 -36 170
-28 211 -35 315 -53 50 -9 113 -19 140 -22 28 -3 79 -12 115 -19 107 -22 240
-44 330 -56 46 -6 88 -13 93 -16 9 -5 220 -39 328 -52 37 -5 71 -11 76 -14 8
-5 84 -18 223 -37 139 -20 197 -30 228 -39 18 -5 65 -13 105 -17 40 -3 87 -13
106 -20 18 -8 52 -14 75 -14 22 0 68 -6 101 -14 33 -8 87 -17 120 -20 33 -4
96 -14 140 -22 138 -26 178 -33 260 -45 44 -6 107 -17 141 -25 33 -8 76 -14
95 -15 19 0 43 -4 54 -9 19 -8 19 -9 1 -9 -36 -2 -201 20 -221 29 -20 9 -63
16 -280 45 -60 9 -126 20 -145 26 -19 5 -84 16 -145 24 -60 8 -148 22 -195 31
-47 8 -139 23 -205 33 -66 10 -127 20 -135 24 -8 3 -49 11 -90 17 -72 10 -125
18 -262 40 -35 5 -101 16 -148 25 -47 8 -141 24 -210 35 -69 10 -134 22 -145
25 -11 3 -67 12 -125 20 -115 16 -254 40 -285 50 -11 3 -69 12 -130 20 -120
16 -261 39 -285 48 -8 3 -62 10 -120 17 -58 7 -116 16 -130 21 -14 5 -56 13
-95 19 -119 16 -309 48 -330 54 -11 4 -67 13 -125 21 -164 22 -242 35 -275 45
-17 5 -77 15 -135 21 -58 7 -109 15 -115 19 -5 4 -39 11 -75 15 -36 3 -78 11
-95 15 -16 5 -79 16 -140 25 -60 9 -148 23 -195 31 -166 29 -337 55 -455 71
-66 8 -129 19 -140 24 -11 5 -49 14 -85 19 -221 33 -335 51 -410 65 -47 9
-141 24 -210 35 -69 11 -156 24 -195 30 -38 6 -83 15 -100 20 -16 5 -75 14
-130 20 -55 6 -107 15 -116 20 -8 4 -67 14 -130 21 -63 6 -119 16 -124 20 -6
4 -39 10 -75 14 -36 3 -81 10 -100 16 -19 5 -80 16 -135 24 -55 8 -140 22
-190 30 -116 20 -309 52 -405 66 -41 6 -84 15 -95 19 -11 5 -67 13 -125 20
-58 6 -114 15 -125 20 -11 5 -72 16 -135 24 -63 8 -135 19 -160 25 -25 6 -62
10 -83 11 -20 0 -45 5 -55 10 -9 6 -66 17 -127 25 -167 23 -263 39 -271 48
-10 10 58 9 108 -3z m-2279 -57 c-7 -2 -21 -2 -30 0 -10 3 -4 5 12 5 17 0 24
-2 18 -5z m494 -89 c-3 -3 -12 -4 -19 -1 -8 3 -5 6 6 6 11 1 17 -2 13 -5z m91
-11 c-10 -2 -26 -2 -35 0 -10 3 -2 5 17 5 19 0 27 -2 18 -5z m11849 -25 c-3
-7 -5 -2 -5 12 0 14 2 19 5 13 2 -7 2 -19 0 -25z m-13577 -8 c0 -5 -5 -10 -11
-10 -5 0 -7 5 -4 10 3 6 8 10 11 10 2 0 4 -4 4 -10z m1893 3 c-7 -2 -19 -2
-25 0 -7 3 -2 5 12 5 14 0 19 -2 13 -5z m11674 -60 c-3 -10 -5 -4 -5 12 0 17
2 24 5 18 2 -7 2 -21 0 -30z m-11430 21 c-3 -3 -12 -4 -19 -1 -8 3 -5 6 6 6
11 1 17 -2 13 -5z m340 -60 c-3 -3 -12 -4 -19 -1 -8 3 -5 6 6 6 11 1 17 -2 13
-5z m11070 -31 c-3 -10 -5 -4 -5 12 0 17 2 24 5 18 2 -7 2 -21 0 -30z m-10974
20 c-7 -2 -21 -2 -30 0 -10 3 -4 5 12 5 17 0 24 -2 18 -5z m83 -12 c-5 -8 -56
-3 -56 5 0 2 14 4 31 4 16 0 28 -4 25 -9z m-2763 -28 c-3 -10 -10 -23 -14 -28
-24 -32 -72 -183 -89 -280 -5 -27 -16 -90 -24 -140 -9 -49 -22 -115 -30 -145
-8 -30 -17 -80 -21 -110 -5 -51 -15 -101 -45 -225 -6 -27 -18 -86 -25 -130 -7
-44 -22 -127 -33 -185 -12 -58 -26 -132 -32 -165 -6 -33 -17 -89 -25 -125 -16
-74 -28 -136 -45 -230 -6 -36 -18 -92 -25 -125 -8 -33 -17 -85 -20 -115 -4
-30 -11 -68 -17 -85 -5 -16 -13 -52 -18 -80 -16 -91 -48 -259 -58 -305 -6 -25
-16 -72 -22 -105 -6 -33 -16 -79 -21 -102 -5 -23 -9 -56 -9 -73 0 -17 -7 -54
-16 -81 -13 -38 -15 -76 -12 -172 3 -67 10 -133 15 -147 6 -14 17 -45 24 -70
18 -61 76 -180 88 -180 5 0 13 -9 16 -20 7 -21 111 -130 124 -130 4 0 21 -11
37 -25 16 -14 35 -25 42 -25 6 0 12 -4 12 -10 0 -5 12 -13 28 -16 15 -4 32
-10 37 -14 6 -3 30 -12 55 -19 25 -7 59 -16 75 -22 17 -5 84 -15 150 -23 66
-8 136 -20 155 -25 19 -6 50 -11 68 -11 18 0 40 -4 50 -10 9 -5 71 -16 137
-24 66 -9 143 -20 170 -25 28 -5 113 -19 190 -30 77 -12 162 -27 189 -33 47
-10 94 -18 241 -38 39 -5 106 -16 150 -25 44 -8 123 -22 175 -29 108 -16 194
-31 295 -51 39 -7 95 -16 125 -20 30 -3 89 -12 130 -20 41 -8 107 -19 145 -25
39 -7 106 -18 150 -25 44 -8 122 -21 174 -29 92 -15 127 -26 80 -26 -13 1 -64
7 -114 15 -49 8 -121 20 -160 26 -38 5 -86 14 -105 19 -19 5 -75 14 -125 20
-49 6 -106 16 -125 21 -19 6 -82 16 -140 24 -194 27 -255 37 -275 46 -11 4
-67 13 -125 19 -58 6 -116 15 -130 20 -14 6 -56 14 -95 20 -165 23 -311 47
-325 53 -8 3 -49 11 -90 16 -145 20 -305 46 -315 52 -5 4 -59 12 -120 19 -60
6 -119 16 -130 20 -11 5 -51 14 -90 19 -38 6 -110 17 -160 25 -49 8 -109 15
-132 15 -24 1 -43 5 -43 10 0 5 -22 12 -50 16 -27 4 -50 10 -50 15 0 4 -13 10
-28 13 -43 9 -163 88 -211 140 -9 10 -25 28 -37 40 -39 41 -104 150 -104 173
0 8 -4 14 -10 14 -5 0 -10 7 -10 16 0 9 -7 30 -14 47 -37 81 -46 257 -20 392
28 148 43 229 60 330 9 55 20 109 25 120 5 11 16 63 24 115 19 120 41 231 49
250 3 8 12 58 21 110 8 52 21 127 29 165 8 39 22 115 32 170 9 55 20 109 25
120 4 11 13 47 18 80 6 33 20 110 31 170 12 61 30 160 40 220 31 175 47 251
54 263 3 6 11 46 16 89 9 70 26 157 50 253 5 19 14 68 20 108 7 41 18 86 26
100 8 15 14 35 14 45 0 9 4 17 8 17 5 0 15 18 22 40 7 22 16 40 20 40 4 0 10
9 13 20 3 11 8 20 11 20 3 0 3 -8 -1 -17z m2845 10 c-10 -2 -28 -2 -40 0 -13
2 -5 4 17 4 22 1 32 -1 23 -4z m69 -9 c-3 -3 -12 -4 -19 -1 -8 3 -5 6 6 6 11
1 17 -2 13 -5z m96 -21 c-7 -2 -21 -2 -30 0 -10 3 -4 5 12 5 17 0 24 -2 18 -5z
m10634 -40 c-3 -10 -5 -2 -5 17 0 19 2 27 5 18 2 -10 2 -26 0 -35z m-10544 30
c-7 -2 -21 -2 -30 0 -10 3 -4 5 12 5 17 0 24 -2 18 -5z m150 -30 c-7 -2 -19
-2 -25 0 -7 3 -2 5 12 5 14 0 19 -2 13 -5z m270 -40 c-7 -2 -21 -2 -30 0 -10
3 -4 5 12 5 17 0 24 -2 18 -5z m65 -10 c-10 -2 -26 -2 -35 0 -10 3 -2 5 17 5
19 0 27 -2 18 -5z m13459 -15 c-3 -8 -6 -5 -6 6 -1 11 2 17 5 13 3 -3 4 -12 1
-19z m-13369 -5 c-10 -2 -26 -2 -35 0 -10 3 -2 5 17 5 19 0 27 -2 18 -5z m79
-9 c-3 -3 -12 -4 -19 -1 -8 3 -5 6 6 6 11 1 17 -2 13 -5z m170 -30 c-3 -3 -12
-4 -19 -1 -8 3 -5 6 6 6 11 1 17 -2 13 -5z m91 -11 c-10 -2 -26 -2 -35 0 -10
3 -2 5 17 5 19 0 27 -2 18 -5z m9599 -15 c-3 -8 -6 -5 -6 6 -1 11 2 17 5 13 3
-3 4 -12 1 -19z m-9550 -4 c-3 -3 -12 -4 -19 -1 -8 3 -5 6 6 6 11 1 17 -2 13
-5z m120 -10 c-3 -3 -12 -4 -19 -1 -8 3 -5 6 6 6 11 1 17 -2 13 -5z m66 -11
c-7 -2 -19 -2 -25 0 -7 3 -2 5 12 5 14 0 19 -2 13 -5z m100 -20 c-7 -2 -19 -2
-25 0 -7 3 -2 5 12 5 14 0 19 -2 13 -5z m93 -12 c-5 -8 -56 -3 -56 5 0 2 14 4
31 4 16 0 28 -4 25 -9z m62 -18 c-10 -2 -28 -2 -40 0 -13 2 -5 4 17 4 22 1 32
-1 23 -4z m90 -10 c-10 -2 -26 -2 -35 0 -10 3 -2 5 17 5 19 0 27 -2 18 -5z
m169 -29 c-3 -3 -12 -4 -19 -1 -8 3 -5 6 6 6 11 1 17 -2 13 -5z m8820 -36 c-3
-7 -5 -2 -5 12 0 14 2 19 5 13 2 -7 2 -19 0 -25z m-8570 -4 c-3 -3 -12 -4 -19
-1 -8 3 -5 6 6 6 11 1 17 -2 13 -5z m12177 -19 c-4 -8 -8 -15 -10 -15 -2 0 -4
7 -4 15 0 8 4 15 10 15 5 0 7 -7 4 -15z m-12006 -12 c-10 -2 -28 -2 -40 0 -13
2 -5 4 17 4 22 1 32 -1 23 -4z m65 -10 c-7 -2 -21 -2 -30 0 -10 3 -4 5 12 5
17 0 24 -2 18 -5z m8324 -25 c-3 -7 -5 -2 -5 12 0 14 2 19 5 13 2 -7 2 -19 0
-25z m-7974 -35 c-7 -2 -19 -2 -25 0 -7 3 -2 5 12 5 14 0 19 -2 13 -5z m11507
-3 c0 -5 -8 -10 -17 -10 -15 0 -16 2 -3 10 19 12 20 12 20 0z m-11417 -7 c-13
-2 -33 -2 -45 0 -13 2 -3 4 22 4 25 0 35 -2 23 -4z m7874 -30 c-3 -10 -5 -4
-5 12 0 17 2 24 5 18 2 -7 2 -21 0 -30z m-7784 16 c-8 -8 -19 -8 -40 -1 -28
10 -28 10 12 11 28 1 36 -2 28 -10z m75 -16 c-10 -2 -28 -2 -40 0 -13 2 -5 4
17 4 22 1 32 -1 23 -4z m75 -10 c-7 -2 -21 -2 -30 0 -10 3 -4 5 12 5 17 0 24
-2 18 -5z m11257 -23 c0 -5 -5 -10 -11 -10 -5 0 -7 5 -4 10 3 6 8 10 11 10 2
0 4 -4 4 -10z m-11093 -6 c-3 -3 -12 -4 -19 -1 -8 3 -5 6 6 6 11 1 17 -2 13
-5z m113 -14 c0 -11 -14 -11 -50 0 -22 7 -21 8 13 9 20 1 37 -3 37 -9z m7337
-22 c-3 -7 -5 -2 -5 12 0 14 2 19 5 13 2 -7 2 -19 0 -25z m-7279 5 c-10 -2
-26 -2 -35 0 -10 3 -2 5 17 5 19 0 27 -2 18 -5z m112 -13 c0 -12 -37 -12 -65
0 -15 7 -10 9 23 9 23 1 42 -3 42 -9z m10687 4 c-3 -3 -12 -4 -19 -1 -8 3 -5
6 6 6 11 1 17 -2 13 -5z m96 -32 c-7 -2 -13 -8 -13 -14 0 -7 -5 -6 -15 2 -8 6
-19 9 -25 5 -5 -3 -10 -1 -10 4 0 6 7 11 15 11 9 0 18 6 21 14 5 12 8 12 23
-2 12 -13 13 -18 4 -20z m-10630 1 c-13 -2 -33 -2 -45 0 -13 2 -3 4 22 4 25 0
35 -2 23 -4z m10507 3 c0 -2 -7 -6 -15 -10 -8 -3 -15 -1 -15 4 0 6 7 10 15 10
8 0 15 -2 15 -4z m-10410 -16 c0 -5 17 -11 38 -11 20 -1 51 -5 67 -9 19 -5 6
-6 -35 -3 -36 3 -83 12 -105 18 l-40 13 38 1 c20 1 37 -3 37 -9z m6907 -12
c-3 -8 -6 -5 -6 6 -1 11 2 17 5 13 3 -3 4 -12 1 -19z m-20 -50 c-3 -8 -6 -5
-6 6 -1 11 2 17 5 13 3 -3 4 -12 1 -19z m-6584 5 c-7 -2 -19 -2 -25 0 -7 3 -2
5 12 5 14 0 19 -2 13 -5z m70 -10 c-7 -2 -19 -2 -25 0 -7 3 -2 5 12 5 14 0 19
-2 13 -5z m110 -20 c-7 -2 -19 -2 -25 0 -7 3 -2 5 12 5 14 0 19 -2 13 -5z
m6394 -15 c-3 -8 -6 -5 -6 6 -1 11 2 17 5 13 3 -3 4 -12 1 -19z m3608 -14
c-17 -18 -45 -18 -45 -1 0 20 8 25 35 19 21 -4 22 -6 10 -18z m-121 9 c-5 -5
-12 -12 -16 -18 -4 -6 -8 -2 -8 8 0 9 7 17 17 17 9 0 12 -3 7 -7z m-9626 -20
c-10 -2 -28 -2 -40 0 -13 2 -5 4 17 4 22 1 32 -1 23 -4z m75 -10 c-7 -2 -19
-2 -25 0 -7 3 -2 5 12 5 14 0 19 -2 13 -5z m142 -23 c49 -7 49 -7 10 -8 -22
-1 -58 3 -80 7 -34 8 -36 9 -10 9 17 0 53 -3 80 -8z m9358 -7 c-7 -2 -19 -2
-25 0 -7 3 -2 5 12 5 14 0 19 -2 13 -5z m-9255 -10 c-10 -2 -26 -2 -35 0 -10
3 -2 5 17 5 19 0 27 -2 18 -5z m90 -20 c-10 -2 -26 -2 -35 0 -10 3 -2 5 17 5
19 0 27 -2 18 -5z m312 -42 c34 -6 41 -10 27 -16 -10 -4 -37 -2 -60 4 -23 6
-53 12 -67 14 -14 3 -8 5 15 5 22 0 60 -3 85 -7z m8850 -16 c0 -8 -2 -15 -4
-15 -2 0 -6 7 -10 15 -3 8 -1 15 4 15 6 0 10 -7 10 -15z m-8742 -12 c-10 -2
-26 -2 -35 0 -10 3 -2 5 17 5 19 0 27 -2 18 -5z m8812 -4 c0 -5 -5 -7 -11 -3
-6 3 -15 1 -19 -6 -5 -8 -9 -7 -13 4 -5 12 0 16 18 16 14 0 25 -5 25 -11z
m-8727 -6 c-7 -2 -19 -2 -25 0 -7 3 -2 5 12 5 14 0 19 -2 13 -5z m8807 -30 c0
-36 -2 -38 -30 -38 -21 0 -29 4 -25 13 3 8 5 17 5 22 0 4 10 6 21 3 18 -5 20
-3 14 16 -4 12 -2 21 4 21 6 0 11 -17 11 -37z m-8632 0 c-10 -2 -28 -2 -40 0
-13 2 -5 4 17 4 22 1 32 -1 23 -4z m98 -12 c5 -5 27 -11 49 -14 37 -3 36 -4
-10 -5 -27 -1 -61 5 -75 13 l-25 14 26 1 c14 0 29 -4 35 -9z m4786 -51 c-15
-21 -32 -39 -38 -40 -7 0 -22 -11 -35 -25 -13 -13 -31 -24 -39 -24 -12 0 -12
2 -1 6 7 3 21 13 31 22 9 9 26 23 36 33 10 9 30 28 43 42 33 37 35 32 3 -14z
m3663 20 c3 -5 1 -10 -4 -10 -6 0 -11 5 -11 10 0 6 2 10 4 10 3 0 8 -4 11 -10z
m-108 -22 c-3 -8 -6 -5 -6 6 -1 11 2 17 5 13 3 -3 4 -12 1 -19z m69 -5 c6 3 9
-14 9 -41 -1 -25 -7 -48 -13 -50 -14 -4 -15 0 -3 30 10 26 -10 65 -27 54 -6
-4 -8 2 -5 14 5 19 6 19 18 4 6 -10 16 -14 21 -11z m-8093 0 c-7 -2 -21 -2
-30 0 -10 3 -4 5 12 5 17 0 24 -2 18 -5z m97 -13 c0 -11 -14 -11 -50 0 -22 7
-21 8 13 9 20 1 37 -3 37 -9z m7903 -10 c-3 -11 -7 -20 -8 -20 -1 0 -5 9 -8
20 -3 12 0 20 8 20 8 0 11 -8 8 -20z m-7830 -7 c-13 -2 -33 -2 -45 0 -13 2 -3
4 22 4 25 0 35 -2 23 -4z m75 -10 c-10 -2 -26 -2 -35 0 -10 3 -2 5 17 5 19 0
27 -2 18 -5z m75 -10 c-7 -2 -21 -2 -30 0 -10 3 -4 5 12 5 17 0 24 -2 18 -5z
m95 -20 c-10 -2 -26 -2 -35 0 -10 3 -2 5 17 5 19 0 27 -2 18 -5z m7752 -13 c7
10 10 11 10 2 0 -7 -9 -20 -20 -29 -15 -13 -20 -30 -20 -62 0 -44 -1 -45 -15
-23 -12 16 -13 27 -6 40 6 11 11 36 13 56 2 34 3 36 15 19 12 -15 15 -16 23
-3z m-7635 0 c8 -13 -65 -13 -85 0 -11 7 -2 10 32 10 26 0 50 -4 53 -10z
m7475 0 c0 -5 -7 -10 -15 -10 -8 0 -15 5 -15 10 0 6 7 10 15 10 8 0 15 -4 15
-10z m-7337 -27 c-7 -2 -21 -2 -30 0 -10 3 -4 5 12 5 17 0 24 -2 18 -5z m3652
-3 c-3 -5 -13 -10 -21 -10 -8 0 -14 -4 -14 -10 0 -5 -5 -10 -11 -10 -16 0 0
20 25 30 28 12 28 12 21 0z m3762 -11 c9 22 21 -6 15 -35 -3 -17 -11 -24 -28
-24 -13 0 -24 5 -24 10 0 6 -9 10 -20 10 -28 0 -25 15 6 28 15 7 23 17 19 25
-4 6 1 3 10 -8 13 -15 18 -17 22 -6z m-7350 5 c-3 -3 -12 -4 -19 -1 -8 3 -5 6
6 6 11 1 17 -2 13 -5z m101 -21 c-10 -2 -28 -2 -40 0 -13 2 -5 4 17 4 22 1 32
-1 23 -4z m94 -15 c-8 -8 -17 -8 -34 0 -22 10 -21 11 12 11 26 1 31 -2 22 -11z
m123 -17 l40 -9 -45 0 c-25 0 -56 4 -70 8 -24 8 -24 8 5 8 17 1 48 -3 70 -7z
m2637 0 c237 -53 361 -52 501 4 9 4 17 3 17 -3 0 -5 -17 -13 -37 -17 -21 -4
-41 -12 -44 -17 -10 -16 -234 -22 -304 -8 -33 6 -95 17 -137 23 -77 12 -113
27 -65 27 15 0 46 -4 69 -9z m4267 -23 c0 -27 -2 -29 -8 -13 -5 11 -6 26 -4
33 8 21 13 13 12 -20z m-6776 1 c-7 -7 -21 -7 -44 -1 l-34 10 45 1 c31 1 41
-2 33 -10z m6817 -22 c0 -5 -4 -5 -10 -2 -5 3 -10 14 -10 23 0 15 2 15 10 2 5
-8 10 -19 10 -23z m-6752 6 c-10 -2 -26 -2 -35 0 -10 3 -2 5 17 5 19 0 27 -2
18 -5z m142 -11 c25 -4 41 -10 35 -13 -5 -3 -41 0 -80 6 -45 8 -57 13 -35 13
19 0 55 -3 80 -6z m158 -28 c28 -4 52 -11 52 -16 0 -4 -11 -6 -25 -2 -14 3
-49 10 -78 14 -64 9 -22 12 51 4z m6449 -26 c-3 -7 -5 -2 -5 12 0 14 2 19 5
13 2 -7 2 -19 0 -25z m-6309 -5 c-10 -2 -28 -2 -40 0 -13 2 -5 4 17 4 22 1 32
-1 23 -4z m6296 -13 c6 0 12 -8 12 -19 0 -12 -6 -17 -18 -13 -12 3 -18 13 -17
31 0 14 3 20 6 14 2 -7 10 -13 17 -13z m-6231 3 c-7 -2 -21 -2 -30 0 -10 3 -4
5 12 5 17 0 24 -2 18 -5z m101 -13 c-7 -7 -19 -7 -35 -1 -23 9 -22 10 11 10
23 1 31 -2 24 -9z m6096 -5 c0 -8 -7 -15 -15 -15 -13 0 -14 3 -3 15 16 18 18
18 18 0z m-6017 -12 c-7 -2 -21 -2 -30 0 -10 3 -4 5 12 5 17 0 24 -2 18 -5z
m74 -9 c-3 -3 -12 -4 -19 -1 -8 3 -5 6 6 6 11 1 17 -2 13 -5z m181 -31 c-10
-2 -26 -2 -35 0 -10 3 -2 5 17 5 19 0 27 -2 18 -5z m5726 -40 c-16 -12 -17
-15 -4 -23 11 -7 12 -10 2 -10 -10 0 -10 -4 2 -16 20 -20 21 -54 1 -54 -8 0
-18 0 -22 0 -4 0 -7 11 -6 25 1 14 1 39 2 55 1 20 6 30 16 30 9 0 15 10 16 23
1 19 2 20 6 3 3 -12 -2 -25 -13 -33z m-5571 10 c-7 -2 -19 -2 -25 0 -7 3 -2 5
12 5 14 0 19 -2 13 -5z m74 -9 c-3 -3 -12 -4 -19 -1 -8 3 -5 6 6 6 11 1 17 -2
13 -5z m176 -31 c-7 -2 -21 -2 -30 0 -10 3 -4 5 12 5 17 0 24 -2 18 -5z m5433
-3 c8 0 14 -8 13 -17 0 -11 -3 -13 -6 -5 -2 6 -13 12 -23 12 -16 0 -19 -6 -16
-35 2 -34 2 -34 -16 -15 -10 10 -18 26 -18 35 0 8 -5 15 -11 15 -5 0 -7 5 -3
11 4 6 19 9 36 5 17 -3 37 -6 44 -6z m-5338 -7 c-10 -2 -28 -2 -40 0 -13 2 -5
4 17 4 22 1 32 -1 23 -4z m79 -19 c-3 -3 -12 -4 -19 -1 -8 3 -5 6 6 6 11 1 17
-2 13 -5z m91 -11 c-10 -2 -28 -2 -40 0 -13 2 -5 4 17 4 22 1 32 -1 23 -4z
m69 -9 c-3 -3 -12 -4 -19 -1 -8 3 -5 6 6 6 11 1 17 -2 13 -5z m96 -21 c-7 -2
-21 -2 -30 0 -10 3 -4 5 12 5 17 0 24 -2 18 -5z m70 -10 c-7 -2 -19 -2 -25 0
-7 3 -2 5 12 5 14 0 19 -2 13 -5z m80 -20 c-7 -2 -21 -2 -30 0 -10 3 -4 5 12
5 17 0 24 -2 18 -5z m162 -13 c21 0 26 -3 18 -11 -9 -9 -27 -7 -70 5 -46 12
-50 15 -18 11 22 -3 53 -5 70 -5z m4565 0 c0 -5 -2 -10 -4 -10 -3 0 -8 5 -11
10 -3 6 -1 10 4 10 6 0 11 -4 11 -10z m-22 -45 c-2 -10 -8 -12 -17 -6 -12 8
-12 11 0 24 15 16 23 8 17 -18z m-4455 18 c-7 -2 -19 -2 -25 0 -7 3 -2 5 12 5
14 0 19 -2 13 -5z m95 -10 c-10 -2 -28 -2 -40 0 -13 2 -5 4 17 4 22 1 32 -1
23 -4z m170 -30 c-10 -2 -28 -2 -40 0 -13 2 -5 4 17 4 22 1 32 -1 23 -4z m65
-10 c-7 -2 -21 -2 -30 0 -10 3 -4 5 12 5 17 0 24 -2 18 -5z m4101 -68 c-4 -9
0 -15 10 -15 10 0 16 -9 16 -25 0 -18 -4 -23 -16 -18 -14 5 -15 1 -10 -28 l6
-34 -15 30 c-13 27 -12 74 2 98 8 13 13 7 7 -8z m59 -44 c-4 -3 -11 -10 -15
-15 -5 -5 -8 0 -8 12 0 15 4 20 16 15 9 -3 12 -9 7 -12z m-3848 -21 c3 -6 -1
-7 -9 -4 -18 7 -21 14 -7 14 6 0 13 -4 16 -10z m67 -64 c9 -18 8 -19 -3 -6 -8
8 -21 20 -29 27 -13 11 -13 12 3 7 10 -4 22 -16 29 -28z m74 -94 c8 -19 13
-37 10 -39 -2 -2 -9 10 -16 27 -7 16 -16 30 -20 30 -4 0 -10 9 -13 21 -9 33
21 3 39 -39z m71 -154 c-3 -8 -6 -5 -6 6 -1 11 2 17 5 13 3 -3 4 -12 1 -19z
m42 -192 c2 -66 -6 -35 -12 49 -4 60 -3 69 3 35 5 -25 9 -63 9 -84z m-2 -158
c-2 -24 -4 -7 -4 37 0 44 2 63 4 43 2 -21 2 -57 0 -80z m-10 -80 c-3 -7 -5 -2
-5 12 0 14 2 19 5 13 2 -7 2 -19 0 -25z m-20 -85 c-3 -10 -5 -4 -5 12 0 17 2
24 5 18 2 -7 2 -21 0 -30z m-10 -70 c-3 -10 -5 -2 -5 17 0 19 2 27 5 18 2 -10
2 -26 0 -35z m-16394 -76 c50 -51 66 -76 85 -129 12 -37 22 -84 23 -105 0 -30
2 -34 9 -18 7 19 9 18 19 -8 16 -41 14 -87 -4 -87 -8 0 -16 8 -16 18 -1 9 -5
-8 -9 -38 -27 -194 -164 -351 -333 -380 -72 -13 -179 0 -207 25 -9 8 -20 15
-24 15 -14 0 -108 95 -117 117 -9 25 10 59 69 123 18 19 35 43 38 53 3 10 24
35 46 55 21 19 46 49 55 65 8 16 25 39 37 51 12 11 28 33 35 49 8 15 21 27 29
27 8 0 12 6 9 15 -8 19 15 63 31 57 7 -2 12 6 12 22 0 16 6 26 15 26 11 0 13
8 9 30 -4 19 -2 30 5 30 6 0 11 7 11 15 0 20 29 34 73 35 33 0 45 -7 100 -63z
m16364 -74 c-3 -10 -5 -2 -5 17 0 19 2 27 5 18 2 -10 2 -26 0 -35z m-10 -75
c-3 -7 -5 -2 -5 12 0 14 2 19 5 13 2 -7 2 -19 0 -25z m-20 -75 c-3 -10 -5 -4
-5 12 0 17 2 24 5 18 2 -7 2 -21 0 -30z m-10 -70 c-3 -10 -5 -4 -5 12 0 17 2
24 5 18 2 -7 2 -21 0 -30z m-10 -60 c-3 -10 -5 -4 -5 12 0 17 2 24 5 18 2 -7
2 -21 0 -30z m-20 -70 c-3 -10 -5 -4 -5 12 0 17 2 24 5 18 2 -7 2 -21 0 -30z
m-10 -80 c-3 -10 -5 -2 -5 17 0 19 2 27 5 18 2 -10 2 -26 0 -35z m-20 -70 c-3
-10 -5 -4 -5 12 0 17 2 24 5 18 2 -7 2 -21 0 -30z m-10 -70 c-3 -10 -5 -2 -5
17 0 19 2 27 5 18 2 -10 2 -26 0 -35z m-10 -65 c-3 -8 -6 -5 -6 6 -1 11 2 17
5 13 3 -3 4 -12 1 -19z m-20 -80 c-2 -13 -4 -5 -4 17 -1 22 1 32 4 23 2 -10 2
-28 0 -40z m-10 -65 c-3 -10 -5 -4 -5 12 0 17 2 24 5 18 2 -7 2 -21 0 -30z
m-30 -150 c-3 -10 -5 -4 -5 12 0 17 2 24 5 18 2 -7 2 -21 0 -30z m-10 -70 c-3
-10 -5 -4 -5 12 0 17 2 24 5 18 2 -7 2 -21 0 -30z m-20 -80 c-3 -10 -5 -2 -5
17 0 19 2 27 5 18 2 -10 2 -26 0 -35z m-10 -70 c-3 -10 -5 -2 -5 17 0 19 2 27
5 18 2 -10 2 -26 0 -35z m-30 -135 c-2 -13 -4 -5 -4 17 -1 22 1 32 4 23 2 -10
2 -28 0 -40z m-10 -90 c-3 -7 -5 -2 -5 12 0 14 2 19 5 13 2 -7 2 -19 0 -25z
m-9988 1 c36 -6 102 -17 146 -25 44 -8 109 -18 145 -23 141 -20 216 -33 245
-41 17 -5 77 -16 135 -24 58 -9 141 -20 185 -27 94 -13 148 -32 70 -24 -27 3
-80 8 -117 11 -38 4 -68 10 -68 14 0 4 -53 13 -117 20 -65 7 -122 16 -128 20
-5 4 -41 11 -80 14 -38 4 -83 12 -100 17 -16 5 -77 16 -135 24 -209 30 -255
37 -275 45 -19 8 -18 9 4 9 13 1 53 -4 90 -10z m9968 -61 c-2 -13 -4 -5 -4 17
-1 22 1 32 4 23 2 -10 2 -28 0 -40z m-10 -75 c-3 -10 -5 -4 -5 12 0 17 2 24 5
18 2 -7 2 -21 0 -30z m-8840 -49 c37 -3 87 -12 111 -20 23 -8 62 -14 85 -14
23 0 49 -5 57 -11 11 -8 0 -9 -40 -4 -147 18 -329 51 -337 60 -5 4 6 5 24 2
18 -4 63 -9 100 -13z m8830 -21 c-3 -10 -5 -4 -5 12 0 17 2 24 5 18 2 -7 2
-21 0 -30z m-8412 -48 c44 -8 125 -22 180 -30 111 -17 244 -40 350 -61 39 -7
99 -16 135 -19 36 -4 79 -11 95 -16 17 -5 62 -13 100 -19 39 -5 124 -18 190
-30 66 -11 152 -25 190 -31 101 -15 118 -19 112 -25 -7 -7 -184 15 -217 27
-14 5 -56 13 -95 19 -155 22 -321 49 -340 54 -11 4 -67 13 -125 21 -166 23
-264 39 -275 46 -5 4 -62 12 -125 19 -63 7 -122 16 -132 21 -9 5 -48 12 -87
15 -40 4 -74 11 -77 15 -7 13 30 11 121 -6z m8389 -49 c-4 -31 -9 -54 -12 -52
-2 3 -1 30 3 61 3 31 9 55 11 52 3 -2 2 -30 -2 -61z m-27 -118 c-2 -13 -4 -5
-4 17 -1 22 1 32 4 23 2 -10 2 -28 0 -40z m-10 -75 c-3 -10 -5 -2 -5 17 0 19
2 27 5 18 2 -10 2 -26 0 -35z m-6863 -4 c34 -6 83 -15 111 -21 27 -6 93 -17
145 -24 109 -16 243 -38 280 -48 14 -3 72 -13 130 -20 146 -20 462 -73 541
-91 37 -8 82 -15 100 -15 34 0 81 -19 49 -20 -28 0 -175 21 -210 31 -19 5 -64
14 -100 19 -181 26 -296 46 -305 51 -5 4 -65 13 -132 20 -68 7 -123 16 -123
20 0 4 -37 10 -82 14 -46 4 -87 11 -93 15 -5 4 -62 14 -125 21 -63 6 -119 16
-125 20 -5 4 -43 11 -83 14 -40 4 -75 12 -78 16 -7 12 27 11 100 -2z m6853
-71 c-3 -7 -5 -2 -5 12 0 14 2 19 5 13 2 -7 2 -19 0 -25z m-20 -65 c-3 -10 -5
-2 -5 17 0 19 2 27 5 18 2 -10 2 -26 0 -35z m-10 -70 c-3 -10 -5 -4 -5 12 0
17 2 24 5 18 2 -7 2 -21 0 -30z m-5318 -44 c36 -6 95 -17 131 -24 36 -8 99
-17 140 -21 41 -3 80 -10 85 -14 6 -5 42 -11 80 -15 39 -4 84 -11 100 -16 17
-5 80 -16 140 -24 61 -8 133 -19 160 -24 28 -6 67 -13 89 -16 21 -4 36 -9 33
-12 -8 -7 -209 18 -222 28 -6 4 -60 13 -120 19 -61 6 -119 15 -130 20 -11 5
-54 14 -95 19 -41 6 -113 17 -160 25 -47 8 -102 15 -122 15 -20 1 -39 5 -43
10 -3 5 -41 13 -85 17 -44 3 -83 11 -86 15 -7 12 25 11 105 -2z m5288 -101
c-3 -7 -5 -2 -5 12 0 14 2 19 5 13 2 -7 2 -19 0 -25z m-10 -70 c-3 -7 -5 -2
-5 12 0 14 2 19 5 13 2 -7 2 -19 0 -25z m-4137 -18 c84 -12 182 -31 215 -40
28 -7 28 -8 5 -9 -28 0 -182 23 -250 38 -25 6 -62 10 -82 11 -20 0 -40 5 -44
12 -7 11 17 10 156 -12z m4117 -32 c-3 -8 -6 -5 -6 6 -1 11 2 17 5 13 3 -3 4
-12 1 -19z m-3738 -29 c36 -6 84 -15 105 -21 22 -5 89 -16 150 -24 61 -8 145
-21 186 -29 41 -9 129 -24 195 -35 66 -10 145 -23 175 -28 30 -6 118 -20 195
-32 77 -11 170 -27 206 -35 37 -8 80 -15 95 -16 16 0 38 -4 49 -9 18 -8 18 -9
-5 -9 -14 0 -65 6 -115 14 -49 8 -121 20 -160 26 -38 5 -86 14 -105 19 -19 5
-75 14 -125 20 -49 6 -106 16 -125 21 -19 5 -82 16 -140 24 -162 22 -242 35
-275 45 -17 5 -77 15 -135 21 -58 7 -109 15 -115 19 -5 4 -43 11 -83 15 -39 4
-75 11 -78 16 -7 12 24 11 105 -2z m3728 -11 c-3 -8 -6 -5 -6 6 -1 11 2 17 5
13 3 -3 4 -12 1 -19z m-97 -176 c0 -14 -33 -53 -100 -118 -80 -78 -88 -85
-125 -104 -17 -8 -32 -17 -35 -20 -13 -13 -101 -51 -131 -56 -19 -4 -38 -10
-44 -14 -26 -19 -285 -19 -285 0 0 4 55 7 123 6 74 0 142 5 172 13 58 16 190
78 206 97 6 8 18 14 25 14 8 0 33 18 55 40 23 22 44 40 48 40 3 0 24 25 46 55
40 56 45 61 45 47z m-2131 -63 c36 -6 86 -15 111 -21 25 -5 90 -16 145 -23 95
-13 126 -18 290 -50 39 -8 108 -19 155 -25 47 -5 101 -15 120 -20 19 -6 53
-10 75 -11 43 0 97 -17 62 -18 -38 -2 -213 21 -229 29 -9 5 -65 14 -125 20
-59 7 -117 16 -128 21 -11 4 -51 13 -90 18 -38 6 -126 20 -195 31 -69 11 -164
26 -212 33 -88 13 -126 27 -73 27 15 0 57 -5 94 -11z m1085 -180 c34 -6 93
-17 131 -24 39 -8 92 -17 118 -20 27 -4 46 -9 43 -12 -8 -8 -206 16 -227 27
-9 5 -45 12 -80 16 -68 7 -114 23 -70 24 14 0 52 -5 85 -11z m-14604 -505 c0
-2 -11 -4 -25 -4 -14 0 -25 4 -25 9 0 4 11 6 25 3 14 -2 25 -6 25 -8z m145
-14 c3 -5 23 -10 45 -10 21 0 71 -6 111 -14 138 -26 206 -36 251 -36 24 0 48
-4 54 -9 5 -5 61 -15 124 -21 63 -7 119 -15 125 -18 10 -6 84 -19 270 -46 61
-9 148 -22 195 -31 123 -21 191 -32 345 -55 39 -5 108 -17 155 -25 47 -8 144
-24 216 -35 72 -11 137 -22 145 -25 8 -3 64 -12 124 -20 137 -19 280 -42 303
-49 10 -3 65 -13 122 -21 58 -8 146 -21 195 -30 50 -8 140 -22 200 -30 61 -9
124 -20 140 -25 17 -5 55 -12 85 -15 30 -3 73 -10 95 -15 22 -5 81 -14 130
-20 50 -7 106 -17 125 -23 19 -5 82 -16 140 -23 101 -12 133 -18 300 -50 41
-7 102 -17 135 -20 33 -3 89 -12 125 -19 36 -8 99 -19 140 -25 41 -6 94 -16
117 -21 23 -5 54 -9 70 -9 15 0 57 -6 93 -14 62 -14 99 -20 270 -46 41 -6 109
-18 150 -25 41 -8 100 -17 130 -20 30 -4 87 -13 125 -20 162 -31 195 -37 295
-50 58 -7 132 -19 165 -25 33 -6 80 -15 105 -20 25 -5 83 -14 130 -20 47 -6
113 -18 147 -26 34 -8 73 -14 87 -14 14 0 45 -4 68 -10 24 -5 77 -14 118 -20
41 -6 107 -17 145 -25 39 -8 95 -17 125 -20 57 -6 174 -26 295 -50 39 -8 99
-17 135 -20 36 -4 83 -11 105 -17 22 -6 67 -14 100 -18 74 -9 247 -37 340 -55
39 -7 99 -18 135 -24 170 -26 222 -34 312 -52 53 -10 109 -19 125 -19 29 0
147 -20 263 -45 36 -8 94 -17 130 -20 36 -3 94 -12 130 -19 70 -15 149 -28
275 -46 44 -6 98 -16 120 -21 46 -11 433 -74 575 -94 52 -7 118 -18 145 -23
110 -23 213 -41 270 -47 33 -3 92 -13 130 -20 39 -8 104 -19 145 -25 41 -6 98
-15 125 -20 132 -22 236 -40 300 -50 102 -17 162 -27 230 -40 33 -6 107 -18
165 -25 58 -8 112 -16 120 -20 19 -7 171 -32 300 -49 52 -7 118 -18 145 -24
47 -10 87 -17 255 -43 36 -6 88 -15 115 -20 51 -11 256 -43 374 -60 36 -5 78
-13 95 -18 17 -5 60 -12 96 -15 36 -4 97 -13 135 -21 127 -26 229 -44 285 -50
30 -3 89 -12 130 -19 100 -18 189 -33 280 -46 41 -6 107 -18 145 -25 39 -8
102 -19 140 -25 144 -22 202 -32 270 -46 39 -7 99 -16 135 -20 36 -3 90 -12
121 -20 31 -8 70 -14 85 -14 16 0 58 -6 94 -15 59 -13 181 -34 330 -55 30 -5
87 -14 125 -20 39 -6 95 -15 126 -20 31 -4 79 -12 105 -18 27 -6 83 -16 124
-22 84 -12 147 -23 235 -40 33 -6 92 -15 130 -21 71 -9 191 -29 325 -55 41 -7
112 -18 158 -24 46 -5 87 -12 91 -15 5 -2 42 -10 82 -16 108 -15 173 -26 279
-45 209 -38 350 -30 545 29 102 31 331 156 343 189 2 4 7 8 12 8 9 0 200 187
200 196 0 3 11 17 25 32 36 37 23 3 -22 -61 -18 -26 -33 -49 -33 -51 0 -20
-238 -252 -272 -265 -5 -1 -21 -14 -35 -27 -14 -13 -30 -24 -35 -24 -5 0 -24
-11 -41 -23 -18 -13 -48 -29 -67 -36 -19 -7 -44 -17 -55 -22 -79 -34 -118 -41
-280 -46 -166 -5 -189 -3 -390 31 -44 8 -129 21 -190 30 -60 9 -141 23 -180
31 -38 8 -99 18 -135 24 -163 25 -208 33 -255 43 -27 6 -95 17 -150 24 -55 7
-149 22 -210 33 -60 12 -156 27 -212 35 -56 8 -106 16 -111 19 -4 4 -42 11
-83 16 -72 11 -241 37 -384 61 -38 7 -86 16 -105 20 -19 5 -75 14 -125 20 -49
6 -119 18 -155 25 -36 8 -94 17 -130 20 -36 4 -79 11 -96 16 -17 5 -59 13 -95
19 -98 14 -308 48 -364 58 -62 12 -157 28 -255 42 -41 6 -106 17 -145 25 -74
14 -152 27 -275 46 -41 6 -104 17 -140 24 -36 8 -99 17 -140 21 -41 4 -86 11
-100 16 -14 5 -54 13 -90 18 -36 5 -87 13 -115 19 -27 6 -86 15 -130 21 -44 5
-105 14 -135 20 -105 21 -155 29 -235 40 -44 7 -111 18 -150 25 -81 15 -168
30 -275 45 -41 6 -92 16 -113 21 -22 6 -87 17 -145 24 -59 8 -143 21 -187 29
-44 8 -127 22 -185 30 -58 9 -127 21 -153 27 -26 6 -76 15 -110 20 -34 4 -89
12 -122 18 -33 5 -89 14 -125 20 -36 5 -92 15 -125 21 -89 17 -151 28 -235 40
-41 6 -104 17 -140 25 -36 8 -94 17 -130 20 -36 4 -94 12 -130 20 -98 20 -238
44 -300 50 -30 4 -84 12 -120 20 -73 15 -157 29 -275 46 -44 6 -107 17 -141
25 -33 8 -71 14 -83 14 -13 0 -40 4 -60 9 -20 6 -76 15 -126 21 -49 7 -103 16
-119 21 -16 5 -70 14 -120 19 -83 10 -135 19 -296 52 -30 6 -98 17 -150 23
-92 13 -178 27 -270 45 -25 5 -83 14 -130 20 -47 6 -110 18 -141 26 -30 8 -67
14 -82 14 -15 0 -46 4 -69 10 -24 5 -77 14 -118 20 -41 6 -97 16 -125 22 -27
6 -93 17 -145 24 -99 13 -233 35 -310 52 -25 6 -72 13 -105 16 -33 4 -91 13
-130 21 -77 14 -160 28 -275 45 -41 6 -103 18 -137 26 -34 8 -74 14 -89 14
-15 0 -41 4 -58 9 -17 6 -71 15 -121 22 -49 6 -104 15 -122 21 -17 5 -80 15
-140 23 -112 15 -193 28 -276 47 -27 6 -92 16 -145 24 -54 7 -124 18 -157 24
-126 23 -162 30 -230 40 -83 13 -220 36 -290 50 -27 5 -88 14 -135 21 -47 6
-107 17 -135 24 -27 8 -81 16 -120 20 -38 3 -99 12 -135 20 -123 25 -185 36
-285 50 -55 8 -116 19 -135 25 -19 5 -48 10 -64 10 -16 0 -43 4 -60 10 -17 5
-78 16 -136 24 -58 9 -141 22 -185 31 -77 15 -113 20 -274 44 -40 6 -78 14
-83 17 -5 3 -58 12 -116 19 -115 14 -197 29 -277 50 -27 8 -84 16 -125 20 -41
3 -88 10 -105 15 -16 5 -59 14 -95 19 -157 24 -267 42 -295 51 -16 5 -55 12
-85 15 -30 4 -66 10 -80 15 -14 4 -63 13 -110 20 -47 6 -92 14 -100 18 -8 3
-24 7 -35 8 -97 12 -193 28 -325 53 -248 47 -281 53 -355 65 -38 6 -74 14 -80
17 -5 4 -54 12 -107 19 -68 10 -98 18 -98 27 0 15 36 18 45 3z m18435 -2005
c0 -8 4 -15 9 -15 12 0 20 -46 10 -62 -6 -9 -9 -4 -9 15 0 30 -16 37 -23 10
-3 -10 -5 1 -6 25 0 23 4 42 9 42 6 0 10 -7 10 -15z m-3 -117 c-3 -7 -5 -2 -5
12 0 14 2 19 5 13 2 -7 2 -19 0 -25z m101 -31 c-11 -19 -13 -20 -16 -4 -2 9
-9 17 -15 17 -8 0 -7 4 2 9 8 5 20 7 27 4 11 -4 11 -9 2 -26z m-55 -10 c20 4
20 3 4 -7 -19 -12 -37 -6 -36 13 0 9 2 9 5 1 3 -7 15 -10 27 -7z m-90 -17 c-4
-16 -7 -17 -19 -5 -19 18 -18 25 5 25 14 0 18 -5 14 -20z m192 10 c3 -5 1 -10
-4 -10 -6 0 -11 5 -11 10 0 6 2 10 4 10 3 0 8 -4 11 -10z m25 -36 c0 -8 -4
-12 -10 -9 -5 3 -10 10 -10 16 0 5 5 9 10 9 6 0 10 -7 10 -16z m-135 -33 c-3
-6 -11 -11 -16 -11 -5 0 -4 6 3 14 14 16 24 13 13 -3z m-142 -98 c-7 -2 -13
-14 -14 -26 0 -12 -3 -16 -6 -9 -2 6 -11 12 -19 12 -8 0 -14 4 -14 10 0 5 6 7
14 4 8 -3 17 -1 21 5 3 6 12 11 18 10 9 0 9 -2 0 -6z m157 -3 c8 -5 12 -11 9
-14 -3 -3 -14 1 -25 9 -21 16 -8 20 16 5z m-110 -14 c0 -3 -4 -8 -10 -11 -5
-3 -10 -1 -10 4 0 6 5 11 10 11 6 0 10 -2 10 -4z m-10 -43 c0 -10 -4 -14 -8
-8 -4 6 -11 13 -16 18 -5 4 -2 7 7 7 10 0 17 -8 17 -17z m-42 -43 l3 -25 -16
23 c-9 12 -21 20 -26 17 -5 -4 -9 -1 -9 5 0 6 10 10 23 8 15 -2 23 -11 25 -28z
m-298 -330 c0 -5 -6 -10 -14 -10 -8 0 -18 5 -21 10 -3 6 3 10 14 10 12 0 21
-4 21 -10z"/>
<path d="M16208 13856 c-8 -6 -18 -21 -22 -33 -4 -12 -23 -36 -42 -52 -19 -17
-31 -31 -27 -31 5 0 14 -14 22 -32 8 -17 20 -38 28 -47 83 -92 103 -112 92
-91 -6 13 -18 31 -26 38 -14 14 -8 54 8 60 5 2 9 11 9 20 0 10 7 30 16 47 14
27 14 33 -3 70 -24 55 -35 65 -55 51z"/>
<path d="M16427 13342 c23 -23 73 -45 73 -32 0 6 -7 10 -15 10 -8 0 -23 9 -32
20 -10 11 -23 20 -31 20 -9 0 -7 -5 5 -18z"/>
<path d="M16510 13291 c0 -8 41 -23 47 -17 2 1 -8 8 -22 14 -14 6 -25 8 -25 3z"/>
<path d="M16600 13240 c8 -5 20 -10 25 -10 6 0 3 5 -5 10 -8 5 -19 10 -25 10
-5 0 -3 -5 5 -10z"/>
<path d="M16720 13175 c46 -18 64 -17 25 0 -16 8 -37 14 -45 14 -8 0 1 -7 20
-14z"/>
<path d="M16815 13130 c3 -5 11 -10 16 -10 6 0 7 5 4 10 -3 6 -11 10 -16 10
-6 0 -7 -4 -4 -10z"/>
<path d="M22360 8810 c0 -5 7 -10 15 -10 8 0 15 5 15 10 0 6 -7 10 -15 10 -8
0 -15 -4 -15 -10z"/>
<path d="M22200 8485 c0 -8 5 -15 10 -15 6 0 10 7 10 15 0 8 -4 15 -10 15 -5
0 -10 -7 -10 -15z"/>
<path d="M8838 21713 c7 -3 16 -2 19 1 4 3 -2 6 -13 5 -11 0 -14 -3 -6 -6z"/>
<path d="M8918 21703 c6 -2 18 -2 25 0 6 3 1 5 -13 5 -14 0 -19 -2 -12 -5z"/>
<path d="M8993 21683 c9 -2 25 -2 35 0 9 3 1 5 -18 5 -19 0 -27 -2 -17 -5z"/>
<path d="M9078 21673 c12 -2 30 -2 40 0 9 3 -1 5 -23 4 -22 0 -30 -2 -17 -4z"/>
<path d="M9145 21660 c3 -5 19 -10 36 -10 16 0 29 5 29 10 0 6 -16 10 -36 10
-21 0 -33 -4 -29 -10z"/>
<path d="M22480 8780 c0 -11 5 -20 10 -20 6 0 10 9 10 20 0 11 -4 20 -10 20
-5 0 -10 -9 -10 -20z"/>
<path d="M22423 8703 c-18 -7 -16 -23 2 -23 8 0 15 7 15 15 0 8 -1 15 -2 14
-2 0 -9 -3 -15 -6z"/>
<path d="M22410 8485 c7 -9 15 -13 17 -11 7 7 -7 26 -19 26 -6 0 -6 -6 2 -15z"/>
<path d="M22340 8384 c0 -12 31 -35 41 -32 8 3 6 10 -5 21 -17 17 -36 23 -36
11z"/>
<path d="M22230 8369 c0 -9 27 -19 50 -19 10 0 20 -5 22 -12 6 -17 28 0 28 23
0 17 -6 19 -50 17 -27 -1 -50 -5 -50 -9z"/>
<path d="M22262 8325 c-6 -8 -19 -12 -28 -8 -12 4 -15 2 -12 -8 5 -15 58 -23
58 -9 0 5 3 15 6 24 8 20 -7 20 -24 1z"/>
<path d="M22340 8330 c0 -5 5 -10 10 -10 6 0 10 5 10 10 0 6 -4 10 -10 10 -5
0 -10 -4 -10 -10z"/>
<path d="M22400 8331 c0 -5 -14 -14 -31 -21 -24 -10 -33 -10 -38 -1 -9 14 -41
4 -41 -13 0 -6 9 -17 20 -24 12 -7 20 -8 20 -2 0 5 6 10 14 10 7 0 19 7 26 15
7 9 15 13 18 10 7 -6 32 14 32 26 0 5 -4 9 -10 9 -5 0 -10 -4 -10 -9z m-70
-41 c0 -5 -4 -10 -10 -10 -5 0 -10 5 -10 10 0 6 5 10 10 10 6 0 10 -4 10 -10z"/>
<path d="M22375 8249 c-6 -28 -1 -48 10 -37 3 2 8 19 11 36 8 42 -12 43 -21 1z"/>
<path d="M22256 8254 c-4 -11 -1 -14 11 -12 9 2 18 9 21 16 6 18 -25 15 -32
-4z"/>
<path d="M22300 8230 c0 -11 5 -20 10 -20 6 0 10 9 10 20 0 11 -4 20 -10 20
-5 0 -10 -9 -10 -20z"/>
<path d="M22332 8229 c2 -7 10 -15 17 -17 8 -3 12 1 9 9 -2 7 -10 15 -17 17
-8 3 -12 -1 -9 -9z"/>
<path d="M22345 8190 c-3 -5 -1 -10 4 -10 6 0 11 5 11 10 0 6 -2 10 -4 10 -3
0 -8 -4 -11 -10z"/>
<path d="M22353 8173 c-20 -8 -15 -23 7 -23 11 0 20 7 20 15 0 15 -6 17 -27 8z"/>
<path d="M22260 8150 c0 -5 7 -10 15 -10 8 0 18 0 22 -1 4 0 9 4 11 10 2 6 -8
11 -22 11 -14 0 -26 -4 -26 -10z"/>
<path d="M22181 8114 c0 -11 3 -14 6 -6 3 7 2 16 -1 19 -3 4 -6 -2 -5 -13z"/>
<path d="M22230 8110 c0 -5 5 -10 10 -10 6 0 10 5 10 10 0 6 -4 10 -10 10 -5
0 -10 -4 -10 -10z"/>
<path d="M22271 8106 c-7 -9 -22 -16 -32 -16 -19 0 -35 -33 -24 -50 10 -17 38
-12 31 6 -9 22 16 44 37 32 21 -11 22 -28 2 -28 -8 0 -15 -4 -15 -9 0 -5 -9
-13 -20 -16 -24 -7 -27 -25 -5 -25 9 0 18 7 21 15 8 19 34 20 34 1 0 -16 34
-31 50 -21 18 11 10 23 -20 30 -28 6 -43 25 -20 25 14 0 12 16 -3 32 -8 7 -16
19 -18 27 -4 10 -8 10 -18 -3z"/>
<path d="M22350 8110 c0 -5 5 -10 10 -10 6 0 10 5 10 10 0 6 -4 10 -10 10 -5
0 -10 -4 -10 -10z"/>
<path d="M22318 8103 c6 -2 12 -16 12 -29 0 -15 6 -24 15 -24 22 0 18 37 -4
50 -11 5 -23 10 -28 9 -4 0 -2 -3 5 -6z"/>
<path d="M22256 7984 c-9 -22 -8 -24 9 -24 8 0 15 9 15 20 0 24 -15 27 -24 4z"/>
<path d="M22110 7980 c0 -5 7 -10 15 -10 8 0 15 5 15 10 0 6 -7 10 -15 10 -8
0 -15 -4 -15 -10z"/>
<path d="M22305 7914 c9 -9 19 -13 23 -10 3 4 0 11 -8 16 -24 15 -33 11 -15
-6z"/>
<path d="M22150 7905 c0 -8 5 -15 10 -15 6 0 10 7 10 15 0 8 -4 15 -10 15 -5
0 -10 -7 -10 -15z"/>
<path d="M22307 7876 c-7 -18 3 -56 14 -56 5 0 9 7 9 15 0 8 -5 15 -12 15 -6
0 -3 9 7 20 15 17 16 20 3 20 -9 0 -18 -6 -21 -14z"/>
<path d="M22190 7870 c0 -5 5 -10 10 -10 6 0 10 5 10 10 0 6 -4 10 -10 10 -5
0 -10 -4 -10 -10z"/>
<path d="M22230 7851 c0 -11 5 -23 10 -26 6 -4 10 5 10 19 0 14 -4 26 -10 26
-5 0 -10 -9 -10 -19z"/>
<path d="M22160 7840 c0 -5 5 -10 10 -10 6 0 10 5 10 10 0 6 -4 10 -10 10 -5
0 -10 -4 -10 -10z"/>
<path d="M22190 7840 c0 -5 5 -10 10 -10 6 0 10 5 10 10 0 6 -4 10 -10 10 -5
0 -10 -4 -10 -10z"/>
<path d="M22252 7780 c0 -19 2 -27 5 -17 2 9 2 25 0 35 -3 9 -5 1 -5 -18z"/>
<path d="M22301 7803 c0 -6 -4 -20 -7 -30 -5 -14 -4 -15 5 -7 7 7 11 20 8 30
-3 11 -5 14 -6 7z"/>
<path d="M22180 7730 c0 -5 5 -10 10 -10 6 0 10 5 10 10 0 6 -4 10 -10 10 -5
0 -10 -4 -10 -10z"/>
<path d="M22284 7729 c-3 -6 -1 -16 5 -22 8 -8 11 -5 11 11 0 24 -5 28 -16 11z"/>
<path d="M22130 7695 c0 -8 -7 -15 -16 -15 -15 0 -44 -23 -44 -34 0 -13 31 -5
36 9 4 10 15 12 35 8 18 -3 29 -1 29 6 0 6 -4 11 -10 11 -5 0 -10 7 -10 15 0
8 -4 15 -10 15 -5 0 -10 -7 -10 -15z"/>
<path d="M22190 7691 c0 -5 -3 -16 -6 -25 -4 -11 -1 -16 10 -16 10 0 16 9 16
25 0 14 -4 25 -10 25 -5 0 -10 -4 -10 -9z"/>
<path d="M22200 7630 c0 -5 5 -10 10 -10 6 0 10 5 10 10 0 6 -4 10 -10 10 -5
0 -10 -4 -10 -10z"/>
<path d="M22150 7610 c0 -5 -6 -10 -14 -10 -8 0 -21 -13 -30 -30 -14 -28 -13
-30 5 -30 13 0 24 10 31 31 7 19 15 28 24 25 8 -3 14 1 14 9 0 8 -7 15 -15 15
-8 0 -15 -4 -15 -10z"/>
<path d="M22190 7580 c0 -5 7 -10 16 -10 8 0 12 5 9 10 -3 6 -10 10 -16 10 -5
0 -9 -4 -9 -10z"/>
<path d="M22010 7555 c0 -8 7 -15 15 -15 8 0 15 7 15 15 0 8 -7 15 -15 15 -8
0 -15 -7 -15 -15z"/>
<path d="M22050 7559 c0 -5 5 -7 10 -4 6 3 10 8 10 11 0 2 -4 4 -10 4 -5 0
-10 -5 -10 -11z"/>
<path d="M22224 7534 c3 -9 6 -20 6 -25 0 -5 7 -9 15 -9 18 0 19 9 1 33 -16
21 -30 22 -22 1z"/>
<path d="M22055 7520 c3 -5 8 -10 11 -10 2 0 4 5 4 10 0 6 -5 10 -11 10 -5 0
-7 -4 -4 -10z"/>
<path d="M22157 7513 c-11 -10 -8 -43 3 -43 6 0 10 4 10 9 0 5 10 13 21 16 17
6 19 9 8 16 -17 10 -33 11 -42 2z"/>
<path d="M22208 7482 c-10 -2 -18 -8 -18 -13 0 -13 27 -11 35 2 9 13 4 16 -17
11z"/>
<path d="M22238 7453 c7 -3 16 -2 19 1 4 3 -2 6 -13 5 -11 0 -14 -3 -6 -6z"/>
<path d="M22140 7409 c0 -5 5 -7 10 -4 6 3 10 8 10 11 0 2 -4 4 -10 4 -5 0
-10 -5 -10 -11z"/>
<path d="M22077 7396 c-4 -10 0 -12 14 -9 22 6 26 23 5 23 -8 0 -16 -6 -19
-14z"/>
<path d="M22130 7365 c0 -8 5 -15 10 -15 6 0 10 -7 10 -16 0 -24 25 -11 28 16
3 17 0 21 -12 17 -9 -4 -16 -2 -16 3 0 6 -4 10 -10 10 -5 0 -10 -7 -10 -15z"/>
<path d="M22130 7300 c0 -13 5 -20 13 -17 6 2 12 10 12 17 0 7 -6 15 -12 18
-8 2 -13 -5 -13 -18z"/>
<path d="M22190 7295 c0 -8 5 -15 10 -15 6 0 10 7 10 15 0 8 -4 15 -10 15 -5
0 -10 -7 -10 -15z"/>
<path d="M21986 7165 c4 -8 8 -15 10 -15 2 0 4 7 4 15 0 8 -4 15 -10 15 -5 0
-7 -7 -4 -15z"/>
<path d="M22025 7160 c3 -5 8 -10 11 -10 2 0 4 5 4 10 0 6 -5 10 -11 10 -5 0
-7 -4 -4 -10z"/>
<path d="M22134 7109 c-3 -6 -1 -16 5 -22 8 -8 11 -5 11 11 0 24 -5 28 -16 11z"/>
<path d="M22166 7091 c-4 -7 -5 -15 -2 -18 9 -9 19 4 14 18 -4 11 -6 11 -12 0z"/>
<path d="M22067 7075 c-4 -8 -2 -17 3 -20 6 -4 10 3 10 14 0 25 -6 27 -13 6z"/>
<path d="M21936 7023 c-11 -11 -6 -23 9 -23 8 0 15 4 15 9 0 13 -16 22 -24 14z"/>
<path d="M22107 6939 c6 -22 14 -24 31 -7 17 17 15 23 -12 24 -18 1 -22 -2
-19 -17z"/>
<path d="M21970 6910 c0 -5 5 -10 10 -10 6 0 10 5 10 10 0 6 -4 10 -10 10 -5
0 -10 -4 -10 -10z"/>
<path d="M22056 6911 c-8 -12 3 -41 15 -41 12 0 12 37 0 45 -5 3 -12 1 -15 -4z"/>
<path d="M21950 6880 c0 -5 5 -10 10 -10 6 0 10 5 10 10 0 6 -4 10 -10 10 -5
0 -10 -4 -10 -10z"/>
<path d="M22110 6840 c0 -5 5 -10 10 -10 6 0 10 5 10 10 0 6 -4 10 -10 10 -5
0 -10 -4 -10 -10z"/>
<path d="M21976 6804 c-9 -22 3 -32 14 -14 12 19 12 30 1 30 -5 0 -12 -7 -15
-16z"/>
<path d="M21940 6685 c0 -8 7 -15 15 -15 8 0 15 7 15 15 0 8 -7 15 -15 15 -8
0 -15 -7 -15 -15z"/>
<path d="M22001 6654 c0 -11 3 -14 6 -6 3 7 2 16 -1 19 -3 4 -6 -2 -5 -13z"/>
<path d="M21870 6610 c0 -5 5 -10 10 -10 6 0 10 5 10 10 0 6 -4 10 -10 10 -5
0 -10 -4 -10 -10z"/>
<path d="M21972 6575 c0 -16 2 -22 5 -12 2 9 2 23 0 30 -3 6 -5 -1 -5 -18z"/>
<path d="M22025 6450 c3 -5 8 -10 11 -10 2 0 4 5 4 10 0 6 -5 10 -11 10 -5 0
-7 -4 -4 -10z"/>
<path d="M21901 6434 c0 -11 3 -14 6 -6 3 7 2 16 -1 19 -3 4 -6 -2 -5 -13z"/>
<path d="M21795 6370 c3 -5 8 -10 11 -10 2 0 4 5 4 10 0 6 -5 10 -11 10 -5 0
-7 -4 -4 -10z"/>
<path d="M21837 6343 c-4 -3 -7 -13 -7 -21 0 -12 3 -12 15 -2 8 7 15 16 15 21
0 11 -14 12 -23 2z"/>
<path d="M21980 6270 c0 -5 5 -10 10 -10 6 0 10 5 10 10 0 6 -4 10 -10 10 -5
0 -10 -4 -10 -10z"/>
<path d="M21781 6194 c0 -11 3 -14 6 -6 3 7 2 16 -1 19 -3 4 -6 -2 -5 -13z"/>
<path d="M21937 6023 c-12 -12 -7 -22 8 -17 8 4 15 10 15 15 0 11 -14 12 -23
2z"/>
<path d="M21861 5944 c0 -11 3 -14 6 -6 3 7 2 16 -1 19 -3 4 -6 -2 -5 -13z"/>
<path d="M21937 5944 c-4 -4 -4 -10 -1 -15 6 -10 34 0 34 12 0 10 -24 12 -33
3z"/>
<path d="M21756 5911 c-8 -12 3 -41 15 -41 5 0 9 11 9 25 0 25 -14 34 -24 16z"/>
<path d="M21815 5910 c3 -5 8 -10 11 -10 2 0 4 5 4 10 0 6 -5 10 -11 10 -5 0
-7 -4 -4 -10z"/>
<path d="M21915 5840 c3 -5 8 -10 11 -10 2 0 4 5 4 10 0 6 -5 10 -11 10 -5 0
-7 -4 -4 -10z"/>
<path d="M21750 5741 c0 -5 5 -13 10 -16 6 -3 10 -2 10 4 0 5 -4 13 -10 16 -5
3 -10 2 -10 -4z"/>
<path d="M21860 5610 c0 -5 5 -10 11 -10 5 0 7 5 4 10 -3 6 -8 10 -11 10 -2 0
-4 -4 -4 -10z"/>
<path d="M21810 5476 c0 -9 5 -16 10 -16 6 0 10 4 10 9 0 6 -4 13 -10 16 -5 3
-10 -1 -10 -9z"/>
<path d="M21810 5300 c0 -5 5 -10 10 -10 6 0 10 5 10 10 0 6 -4 10 -10 10 -5
0 -10 -4 -10 -10z"/>
<path d="M21610 5290 c0 -5 5 -10 11 -10 5 0 7 5 4 10 -3 6 -8 10 -11 10 -2 0
-4 -4 -4 -10z"/>
<path d="M21791 5164 c0 -11 3 -14 6 -6 3 7 2 16 -1 19 -3 4 -6 -2 -5 -13z"/>
<path d="M21541 5134 c0 -11 3 -14 6 -6 3 7 2 16 -1 19 -3 4 -6 -2 -5 -13z"/>
<path d="M21690 4699 c0 -5 5 -7 10 -4 6 3 10 8 10 11 0 2 -4 4 -10 4 -5 0
-10 -5 -10 -11z"/>
<path d="M21485 3550 c3 -5 8 -10 11 -10 2 0 4 5 4 10 0 6 -5 10 -11 10 -5 0
-7 -4 -4 -10z"/>
<path d="M21260 2449 c0 -5 5 -7 10 -4 6 3 10 8 10 11 0 2 -4 4 -10 4 -5 0
-10 -5 -10 -11z"/>
<path d="M21158 1963 c7 -3 16 -2 19 1 4 3 -2 6 -13 5 -11 0 -14 -3 -6 -6z"/>
<path d="M20950 1840 c0 -5 5 -10 10 -10 6 0 10 5 10 10 0 6 -4 10 -10 10 -5
0 -10 -4 -10 -10z"/>
<path d="M21120 1813 c0 -5 -13 -8 -30 -5 -23 3 -30 0 -30 -12 0 -9 5 -16 10
-16 6 0 10 5 10 10 0 7 6 7 19 1 15 -8 20 -7 25 6 4 9 4 18 1 21 -3 3 -5 1 -5
-5z"/>
<path d="M21080 1760 c0 -5 5 -10 11 -10 5 0 7 5 4 10 -3 6 -8 10 -11 10 -2 0
-4 -4 -4 -10z"/>
<path d="M21114 1749 c-3 -6 -1 -16 5 -22 8 -8 11 -5 11 11 0 24 -5 28 -16 11z"/>
<path d="M20840 1360 c0 -5 5 -10 10 -10 6 0 10 5 10 10 0 6 -4 10 -10 10 -5
0 -10 -4 -10 -10z"/>
<path d="M20818 1323 c6 -2 18 -2 25 0 6 3 1 5 -13 5 -14 0 -19 -2 -12 -5z"/>
<path d="M20860 1310 c0 -5 5 -10 10 -10 6 0 10 5 10 10 0 6 -4 10 -10 10 -5
0 -10 -4 -10 -10z"/>
<path d="M20900 1310 c0 -5 7 -10 15 -10 8 0 15 5 15 10 0 6 -7 10 -15 10 -8
0 -15 -4 -15 -10z"/>
<path d="M20635 1270 c3 -5 8 -10 11 -10 2 0 4 5 4 10 0 6 -5 10 -11 10 -5 0
-7 -4 -4 -10z"/>
<path d="M20583 1121 c-18 -15 -30 -31 -26 -35 10 -9 23 -7 23 4 0 6 12 22 26
35 37 35 16 31 -23 -4z"/>
<path d="M20658 1023 c7 -3 16 -2 19 1 4 3 -2 6 -13 5 -11 0 -14 -3 -6 -6z"/>
</g>
</svg>
